<svg xmlns="http://www.w3.org/2000/svg" version="1.1" viewBox="0 1 1601.05 236">
<path transform="translate(1483 1.88)" d="m0 0c1.64-0.00387 1.64-0.00387 3.3-0.00781 2.82 0.133 2.82 0.133 5.82 1.13 1.35 0.0194 2.71-0.00602 4.06-0.0625 12.3-0.099 25 4.15 35.7 9.91 2.22 1.2 2.22 1.2 4.69 2.12 23.5 9.57 41.3 33.3 52.5 55 0.912 2.24 1.69 4.42 2.33 6.74 1.38 4.68 3.25 9.21 5.05 13.7 8.8 25.1 4.08 53.6-6.7 77.3-2.66 5.5-5.99 10.4-9.68 15.2-0.619 0.969-1.24 1.94-1.88 2.94-3.4 4.91-7.08 9.67-11.1 14.1h-2c-0.268 0.639-0.536 1.28-0.812 1.94-1.19 2.06-1.19 2.06-4.19 3.06-0.306 0.62-0.611 1.24-0.926 1.88-1.34 2.65-2.76 3.5-5.26 5.06-2.83 1.79-5.58 3.6-8.25 5.62-17.2 12.3-38.7 17.2-59.5 16.8-2.5-0.0369-5-0.041-7.5-0.0405-8.06-0.0348-15.8-0.221-23.6-2.37-0.658-0.166-1.32-0.332-1.99-0.503-20-5.25-36.1-15.4-51-29.5-0.897-0.821-1.79-1.64-2.72-2.49-7.46-7.07-13-14.7-18.3-23.5-0.373-0.619-0.746-1.24-1.13-1.88-10.3-17.4-14.3-35.5-14.1-55.6-0.00773-1.12-0.0155-2.24-0.0234-3.39 0.0248-10.8 1.12-21.3 4.9-31.4 0.257-0.706 0.514-1.41 0.78-2.14 4.39-11.7 9.98-22.6 17.6-32.5 0.599-0.802 1.2-1.6 1.82-2.43 5.07-6.69 10.7-12.2 17.2-17.6 0.789-0.655 1.58-1.31 2.39-1.98 9.05-7.38 18.4-13.3 29.5-17.2 1.81-0.682 3.59-1.48 5.34-2.3 4.13-1.78 8.26-2.48 12.7-3.14 0.752-0.121 1.5-0.242 2.28-0.367 7.56-1.19 15.1-2.15 22.7-2.13zm-66.9 48.1c-0.825 0.804-1.65 1.61-2.5 2.44-3.8 3.9-6.74 7.89-9.5 12.6-0.956 1.4-1.91 2.79-2.88 4.19-10.3 15.5-14.3 32.7-14.3 51.2-0.0122 0.882-0.0245 1.76-0.0371 2.67-0.0137 6.21 0.781 11.9 2.22 18 0.249 1.06 0.498 2.13 0.754 3.22 7.18 25.2 24.2 44.3 46.6 57.4 5.67 3.04 11.6 5.22 17.7 7.38 0.996 0.385 1.99 0.771 3.02 1.17 16.7 5.94 39.6 6.03 56-1.17 1.15-0.496 2.3-0.993 3.48-1.5 13.7-6.05 25.2-13.7 35.5-24.5 0.33-0.99 0.66-1.98 1-3 0.593-0.277 1.19-0.554 1.8-0.84 10.1-5.34 17-24.3 20.3-34.7 6.56-25.3 2.91-50.9-9.89-73.6-8.01-13.8-8.01-13.8-20.2-22.9-0.33-0.99-0.66-1.98-1-3-1.99-1.59-3.95-3.02-6.06-4.44-0.592-0.402-1.18-0.804-1.79-1.22-4.24-2.84-8.47-5.3-13.1-7.34-0.727-0.335-1.45-0.67-2.2-1.02-2.25-1.03-4.52-2.01-6.8-2.98-1.2-0.536-2.39-1.07-3.62-1.62-30.8-11.1-72.2 0.0939-94.4 23.6zm-47 42 1 2z" fill="#FD0803"/>
<path transform="translate(681,13)" d="m0 0c0.602 0.259 1.2 0.518 1.82 0.785 14.4 6.51 27.2 18.2 37.2 30.2 0.82 0.93 0.82 0.93 1.66 1.88 0.526 0.597 1.05 1.19 1.59 1.81 0.459 0.519 0.918 1.04 1.39 1.57 13.4 17.1 21.4 40.2 21.6 61.8 0.00807 0.843 0.0161 1.69 0.0245 2.56 0.0138 1.78 0.0245 3.55 0.0324 5.33 0.0115 1.79 0.0319 3.58 0.0615 5.37 0.187 11.3-0.338 21-4.36 31.7-0.264 0.704-0.528 1.41-0.801 2.13-0.672 1.65-1.43 3.26-2.2 4.87-0.287 0.614-0.574 1.23-0.869 1.86-4.05 8.6-8.44 16.5-14.1 24.1-0.779 1.2-1.55 2.41-2.31 3.62-0.557 0.784-1.11 1.57-1.69 2.38h-2c-0.206 0.536-0.413 1.07-0.625 1.62-1.91 3.29-4.42 5.97-7.38 8.38h-2c-0.233 0.588-0.467 1.18-0.707 1.78-1.61 2.75-3.34 3.94-5.98 5.72-0.897 0.605-1.79 1.21-2.72 1.83-3.14 2.02-6.31 3.87-9.59 5.67-1.05 0.639-2.1 1.28-3.19 1.94-13.5 7.64-28.9 12.2-44.4 12.2-0.814 0.00333-1.63 0.00666-2.47 0.0101-1.72 0.00504-3.43 0.00741-5.15 0.00725-2.6 0.00218-5.2 0.0204-7.8 0.0393-1.68 0.00294-3.35 0.00492-5.03 0.00586-0.766 0.00719-1.53 0.0144-2.32 0.0218-21-0.0873-42.5-10.4-58.7-23.3-0.862-0.66-1.72-1.32-2.61-2-9.06-7.04-16.1-14.4-22.4-24-0.772-1.1-0.772-1.1-1.56-2.21-4.14-5.95-7.35-12.2-10.4-18.8-0.804-1.7-0.804-1.7-1.62-3.44-11.5-29.7-9.73-60.1 2.71-89.1 3.39-7.6 7.04-14.7 11.9-21.5 0.419-0.585 0.838-1.17 1.27-1.77 5.52-7.61 11-13.8 18.7-19.2 1.69-1.37 3.38-2.74 5.06-4.12 8.15-6.52 16.9-11.6 26.8-15.1 1.46-0.532 2.9-1.12 4.32-1.75 27.2-11.5 62.8-7.8 88.8 4.97zm-67.4 11.2c-0.816 0.109-1.63 0.218-2.47 0.331-5.87 0.912-10.8 2.8-16.1 5.42-0.623 0.291-1.25 0.583-1.89 0.883-7.23 3.38-14 6.91-20.1 12.1-0.737 0.617-1.47 1.23-2.23 1.87-5.06 4.36-9.53 8.97-13.8 14.1-0.683 0.83-1.37 1.66-2.07 2.52-5.29 6.52-9.81 12.6-12.9 20.5-0.469 1.17-0.938 2.35-1.42 3.56-8.97 24.1-8.23 47.7 2.07 71.3 5.27 11.5 12.2 22.4 22.4 30.1 1.08 1.14 1.08 1.14 2.19 2.31 6.37 6.09 15.7 13.5 24.5 15.2 1.14 0.244 1.14 0.244 2.3 0.492 0.33 0.66 0.66 1.32 1 2 2.23 0.746 4.48 1.4 6.75 2 6.94 1.86 6.94 1.86 9.53 3.04 5.78 2.04 12.3 1.4 18.4 1.4 1.11 0.0031 1.11 0.0031 2.25 0.00626 13.5-0.00678 26.4-0.992 38.1-8.44 0.866-0.412 1.73-0.825 2.62-1.25 24-12.4 42.4-33.4 50.6-59.2 4.3-14.8 4.73-31.6 0.74-46.5-0.284-1.16-0.567-2.32-0.859-3.52-4.11-15.2-11.8-27-21.1-39.5-0.759-1.01-1.52-2.02-2.3-3.07-3.58-3.89-7.56-6.9-11.8-10-0.851-0.621-1.7-1.24-2.58-1.88-5.85-4.19-11.5-7.58-18.3-10.1-1.51-0.654-1.51-0.654-3.06-1.32-16.2-6.81-33.2-6.83-50.4-4.43zm112 103 1 2z" fill="#FD0803"/>
<path transform="translate(204 7.88)" d="m0 0c14.1 5.2 25.1 14 31.5 27.8 5.17 12 6.08 26.3 1.87 38.8-1.98 4.96-4.33 9.32-7.54 13.6-1.51 2.22-2.41 4.45-3.33 6.96 0.853 0.654 0.853 0.654 1.72 1.32 4.88 3.76 9.73 7.52 14.3 11.7v2h2c15 17.8 18.2 38.3 17 61-2.02 18.3-13.5 35.2-27.3 46.9-21.2 16.3-43.5 16.1-69.7 16.1v-229c9.56-4.78 29.6-0.396 39.5 2.88zm-18.5 18.1v62c7.02 1.75 13.7-2.01 19.7-5.62 1.91-1.14 1.91-1.14 3.31-2.38v-2c1.49-0.495 1.49-0.495 3-1 5.36-6.52 7.52-14 7.31-22.3-0.985-8.56-4.55-16.3-11.3-21.7-7.53-4.69-12.8-7-22-7zm1 80c-0.9 3.85-1.13 7.41-1.13 11.4-0.00315 1.27-0.0063 2.54-0.00955 3.85 0.0018 1.39 0.00385 2.78 0.00613 4.17-6.76e-4 1.46-0.00165 2.92-0.0029 4.38-0.00148 3.08 6.67e-4 6.15 0.00534 9.23 0.00555 3.83 0.00242 7.66-0.00345 11.5-0.0273 21.2 0.386 42.3 1.13 63.5 1.42-0.138 2.83-0.281 4.25-0.427 0.789-0.0793 1.58-0.159 2.39-0.24 3.6-0.508 6.85-1.64 10.2-2.96 0.688-0.264 1.38-0.529 2.08-0.801 15.1-6.02 25.4-15.6 32.3-30.3 5.16-12.4 5.18-25.7 0.707-38.3-6.8-15.9-19.4-26.2-35-33-5.74-2.15-11-2.22-17-2z" fill="#221F21"/>
<path transform="translate(1182,4)" d="m0 0c37.6 0 62.8 8.77 89.8 35.3 22.1 22.3 33.5 49.8 33.4 81.1-0.436 31.6-13.2 60-35.5 82-24.8 23.8-54.1 30.9-87.7 32.6v-231zm21 22v187c17.8-2.54 33.5-10.2 47-22 0.714-0.583 1.43-1.17 2.16-1.77 1.66-1.36 3.25-2.79 4.84-4.23v-2h2c17.4-17.7 25.6-42.6 25.4-67-0.627-25.2-12.1-48-30.3-65.3-13.5-12-32.5-24.7-51.2-24.7z" fill="#1E1F22"/>
<path transform="translate(402,3)" d="m0 0c2.55-0.00615 5.09-0.0106 7.64-0.0142 0.714-0.0019 1.43-0.0038 2.16-0.00575 19.9-0.0207 38.3 1.93 54.2 15 0.694 0.567 1.39 1.13 2.1 1.72 2.02 1.71 3.96 3.48 5.9 5.28 0.681 0.628 1.36 1.26 2.06 1.9 13.7 13.1 21.5 30.4 22.2 49.2 0.432 20.2-1.29 36.7-14.3 52.9-0.619 0.846-1.24 1.69-1.88 2.56-2.52 2.89-5.3 5.31-8.22 7.79-1.88 1.59-1.88 1.59-3.46 3.21-5.01 4.99-14.2 11.4-21.4 11.4 3.57 11.7 11.7 20.5 19.6 29.5 1.13 1.29 2.23 2.61 3.33 3.93 3.88 4.68 8.21 8.3 13.1 11.9 0.641 0.549 1.28 1.1 1.94 1.66v2c0.563 0.271 1.13 0.541 1.71 0.82 4.31 2.22 8.12 4.45 11.3 8.18 1.08 4.04 0.864 7.79 0.562 11.9l-0.123 3.23c-0.106 2.62-0.253 5.22-0.439 7.83-4.52-0.758-6.93-2.15-10.6-5-1.06-0.823-2.12-1.65-3.18-2.47-0.539-0.422-1.08-0.843-1.63-1.28-2.55-1.97-5.15-3.85-7.75-5.75-8.52-6.41-16-13.3-22.9-21.5-1.12-1.25-2.25-2.5-3.38-3.75-6.92-7.94-13-16.5-18.4-25.4-2.45-3.95-4.76-6.39-8.18-9.81-0.33 24.1-0.66 48.2-1 73-3.55 1.18-6.8 1.18-10.5 1.19-0.677 0.0122-1.35 0.0245-2.05 0.0371-3.71 0.011-5.28-0.111-8.45-2.22-0.294-3.05-0.391-5.89-0.361-8.93-0.00256-0.937-0.00513-1.87-0.00777-2.84-0.00497-3.16 0.0116-6.32 0.028-9.48 8.46e-4 -2.26 3.72e-4 -4.51-0.00133-6.77-8.64e-4 -6.14 0.0168-12.3 0.0377-18.4 0.0187-6.41 0.0205-12.8 0.0241-19.2 0.00828-10.8 0.027-21.5 0.0538-32.3 0.0275-11.1 0.0488-22.2 0.0615-33.3 7.88e-4 -0.683 0.00158-1.37 0.00239-2.07 0.00392-3.43 0.00771-6.86 0.0114-10.3 0.0311-28.5 0.0842-56.9 0.151-85.4zm21 24c-0.0956 1.44-0.122 2.89-0.12 4.33-0.00137 0.935-0.00275 1.87-0.00417 2.83 0.0036 1.03 0.00719 2.07 0.0109 3.13-1.46e-4 1.08-2.92e-4 2.17-4.43e-4 3.28 7e-4 3.6 0.00849 7.2 0.0163 10.8 0.00186 2.49 0.00329 4.97 0.00429 7.46 0.00344 5.89 0.0113 11.8 0.0213 17.7 0.0123 7.36 0.0176 14.7 0.0232 22.1 0.0107 13.1 0.0276 26.3 0.0488 39.4 16.5 0.208 28.8-7.14 40.3-18.3 9.97-10 14.9-22.2 14.9-36.4-0.0637-15.2-4.22-27.6-14.2-39.3-0.598-0.866-1.2-1.73-1.81-2.62-7.39-8.02-18.9-14.5-29.7-15.8-5.09-0.423-5.09-0.423-9.47 1.41z" fill="#202122"/>
<path transform="translate(1046 3.89)" d="m0 0c1.19 0.00786 1.19 0.00786 2.4 0.0159 1.28 0.00483 1.28 0.00483 2.59 0.00977 0.898 0.00838 1.8 0.0168 2.72 0.0254 0.902 0.00451 1.8 0.00902 2.73 0.0137 2.24 0.0118 4.47 0.0283 6.71 0.0488 0.00331 0.795 0.00662 1.59 0.01 2.41 0.0816 19.4 0.174 38.9 0.277 58.3 0.0499 9.4 0.0963 18.8 0.134 28.2 0.0332 8.2 0.0731 16.4 0.121 24.6 0.025 4.33 0.0469 8.67 0.0606 13-0.00992 21.9-0.00992 21.9 1.24 43.8 0.0685 0.795 0.137 1.59 0.208 2.41 1.28 11.9 7.45 21.2 16.6 28.7 8.05 5.39 17.7 8.48 27.4 6.57 11.2-4.25 19.2-9.87 25.9-19.9 0.394-0.577 0.788-1.15 1.19-1.75 0.366-0.575 0.733-1.15 1.11-1.74 0.327-0.506 0.655-1.01 0.992-1.53 2.14-5.43 1.96-11.8 1.98-17.6 0.00423-0.709 0.00846-1.42 0.0128-2.15 0.0129-2.35 0.019-4.7 0.0251-7.05 0.00795-1.69 0.0163-3.39 0.0251-5.08 0.018-3.64 0.033-7.27 0.0458-10.9 0.0203-5.74 0.0479-11.5 0.0767-17.2 0.0651-13.2 0.121-26.4 0.176-39.7 0.0508-12.1 0.104-24.3 0.165-36.4 0.0284-5.71 0.052-11.4 0.0719-17.1 0.0133-3.54 0.0308-7.09 0.0493-10.6 0.00778-1.65 0.0138-3.3 0.0181-4.95 0.00601-2.24 0.018-4.48 0.0316-6.72 0.00515-1.26 0.0103-2.51 0.0156-3.81 0.136-2.79 0.136-2.79 1.14-3.79 1.42-0.0865 2.84-0.107 4.25-0.0977 1.28 0.00483 1.28 0.00483 2.59 0.00977 1.35 0.0126 1.35 0.0126 2.72 0.0254 0.902 0.00451 1.8 0.00902 2.73 0.0137 2.24 0.0118 4.47 0.0283 6.71 0.0488 0.0702 23.4 0.123 46.8 0.155 70.2 0.0154 10.9 0.0365 21.7 0.0709 32.6 0.03 9.47 0.0493 18.9 0.0559 28.4 0.0039 5.01 0.013 10 0.0349 15 0.0205 4.72 0.0266 9.45 0.0221 14.2 8.2e-4 1.73 0.00672 3.45 0.0183 5.18 0.123 19.4-3.96 33.6-17.6 47.9-12.9 12.1-28.7 17.2-46.2 16.9-15-0.765-29.2-8.92-39.3-19.7-13.1-15.5-15.6-31.4-15.5-50.9-0.00107-1.73-0.00302-3.47-0.00575-5.2-0.00482-4.68 0.00277-9.36 0.013-14 0.00881-4.9 0.00702-9.81 0.00664-14.7 9.34e-4 -8.22 0.00959-16.4 0.0233-24.7 0.0158-9.52 0.021-19 0.0203-28.5-6.09e-4 -9.16 0.00448-18.3 0.0128-27.5 0.00354-3.9 0.00536-7.8 0.00589-11.7 1e-3 -4.58 0.00708-9.16 0.0172-13.7 0.00293-1.68 0.00415-3.37 0.00357-5.05-4.87e-4 -2.29 0.00513-4.58 0.0124-6.87 0.00168-1.28 0.00335-2.57 0.00508-3.89 0.171-3.79 0.171-3.79 2.99-3.96z" fill="#212022"/>
<path transform="translate(381,4)" d="m0 0v22h-77c-0.33 13.9-0.66 27.7-1 42h60v21h-60v124h78v21h-100v-229c82-1 82-1 100-1z" fill="#221F22"/>
<path transform="translate(900,13)" d="m0 0c2.25 2.23 4.08 4.47 6 7-1.76 3.8-3.96 6.09-7 9-0.501 0.557-1 1.11-1.52 1.69-1.54 1.69-1.54 1.69-4.48 4.31-3.36-0.262-5.24-1.81-7.75-3.94-6.27-4.84-12.5-5.55-20.2-5.06-6.82 1.27-9.93 4-13.8 9.62-3.12 8.88-1.1 17.1 2.81 25.4 4.99 9.79 10.9 18.9 17 28 1.47 2.18 2.94 4.37 4.4 6.55 0.553 0.824 0.553 0.824 1.12 1.66 14.3 21.3 27.6 42.2 35.5 66.8 0.376 1.11 0.753 2.22 1.14 3.36 3.48 14.7 1.31 30.5-6.39 43.4-8 11.7-18.9 19.7-32.8 23.2-0.701 0.183-1.4 0.366-2.12 0.555-16.7 2.58-32.8-0.103-47.9-7.55-1.1-0.44-2.2-0.879-3.33-1.33-3.24-3.24-3.11-4.28-3.26-8.75 0.0399-2.39 0.111-4.78 0.211-7.17 0.0406-1.83 0.0406-1.83 0.082-3.7 0.0707-3.02 0.169-6.03 0.293-9.05 3.6 1.36 6.55 2.97 9.71 5.17 9.21 6.39 19.8 11.3 31.3 9.83 12.1-3 23.7-8.65 30.5-19.4 4.34-8.36 5.06-16.2 2.35-25.3-1.41-3.87-3.11-7.59-4.89-11.3l-1.46-3.14c-6.66-13.2-16-25-24.7-37-32-44-32-44-32.3-68.1-0.0106-0.832-0.0211-1.66-0.032-2.52 0.165-11.3 4.73-21.1 12.4-29.4 16.7-15.3 40.9-16.5 59.1-2.92z" fill="#212022"/>
<path transform="translate(21,4)" d="m0 0c0.33 69 0.66 138 1 209h78v21h-100v-229c16-1 16-1 21-1z" fill="#221F21"/>
<path transform="translate(1019 3.93)" d="m0 0c1.98 0.0682 1.98 0.0682 2.98 1.07 0.0867 1.49 0.107 2.98 0.0977 4.47-0.0025 0.81-5e-3 1.62-0.00757 2.45-0.0091 1.04-0.0182 2.07-0.0276 3.14-0.0206 3.28-0.0412 6.56-0.0625 9.94-12.9 0.33-25.7 0.66-39 1-0.33 69-0.66 138-1 209-10.4-0.495-10.4-0.495-21-1v-208h-39c-1-1-1-1-1.11-2.95 0.00786-1.25 0.00786-1.25 0.0159-2.52 0.00322-0.899 0.00645-1.8 0.00977-2.72 0.00838-0.946 0.0168-1.89 0.0254-2.87 0.00451-0.949 0.00902-1.9 0.0137-2.88 0.0118-2.35 0.0283-4.71 0.0488-7.06 12.3-0.131 24.6-0.261 36.9-0.391 5.71-0.0604 11.4-0.121 17.1-0.182 5.51-0.0586 11-0.117 16.5-0.175 2.1-0.0222 4.21-0.0446 6.31-0.067 2.94-0.0314 5.89-0.0624 8.83-0.0934 1.31-0.014 1.31-0.014 2.64-0.0283 1.56-0.0163 3.12-0.031 4.68-0.0436 1.66-0.0168 3.33-0.0505 4.99-0.0881z" fill="#1F2022"/>
<path transform="translate(1182,4)" d="m0 0c37.6 0 62.8 8.77 89.8 35.3 22.1 22.3 33.5 49.8 33.4 81.1-0.212 15.4-3.38 30.4-9.18 44.6h-2c-0.125-5.75-0.125-5.75 1-8 0.33-0.33 0.66-0.66 1-1-1.89-0.681-1.89-0.681-4-1-0.66 0.66-1.32 1.32-2 2v-2c-1.32 0.33-2.64 0.66-4 1 0.99 0.33 1.98 0.66 3 1h-3c-0.66 3.3-1.32 6.6-2 10 0.66 0.33 1.32 0.66 2 1v10h-12c-0.33 1.32-0.66 2.64-1 4h3v2c-0.99 0.33-1.98 0.66-3 1-0.33 0.66-0.66 1.32-1 2h-3c-0.33 2.31-0.66 4.62-1 7h-4v2h-2v-2h-2c0.495 3.46 0.495 3.46 1 7-3.47 1.16-6.36 1.07-10 1v2c-0.66 0.33-1.32 0.66-2 1-0.658 3.03-0.658 3.03-1 6-0.722-0.0619-1.44-0.124-2.19-0.188-4.27 0.285-6.84 2.22-9.81 5.19-0.33-1.32-0.66-2.64-1-4h-5c0.495 2.48 0.495 2.48 1 5h-3v2c-2.31 0.33-4.62 0.66-7 1v-3c-0.99 0.33-1.98 0.66-3 1v-6c-5.02 0.33-5.02 0.33-9 3v-3c1.16-0.428 2.32-0.856 3.51-1.3 16.4-6.17 30.9-13.5 43.1-26.5 1.34-1.23 1.34-1.23 3.34-1.23 0.267-0.584 0.534-1.17 0.809-1.77 1.22-2.28 2.58-3.96 4.25-5.92 16.1-20.4 21.5-45.3 18.7-70.8-3.68-24.1-18.5-45.7-37.7-60.1-8.53-6.18-17.2-10.7-27-14.4-0.889-0.335-1.78-0.67-2.7-1.02-7.21-2.43-14.8-3.13-22.3-3.98-0.33-1.32-0.66-2.64-1-4-2.31 0.66-4.62 1.32-7 2-0.66 4.62-1.32 9.24-2 14h-1v-33z" fill="#221F21"/>
<path transform="translate(129 3.87)" d="m0 0c1.27-0.00193 1.27-0.00193 2.56-0.00391 0.885 0.00387 1.77 0.00773 2.68 0.0117 0.889-0.00387 1.78-0.00773 2.69-0.0117 0.845 0.00129 1.69 0.00258 2.56 0.00391 1.17 0.00169 1.17 0.00169 2.36 0.00342 1.83 0.129 1.83 0.129 2.83 1.13 0.098 2.95 0.13 5.87 0.12 8.81 8.54e-4 0.936 0.00171 1.87 0.00259 2.84 0.00166 3.16-0.00387 6.32-0.00932 9.48-2.82e-4 2.26-1.24e-4 4.51 4.43e-4 6.77 2.88e-4 6.15-0.00561 12.3-0.0126 18.4-0.00623 6.42-0.00684 12.8-0.00803 19.2-0.00276 10.8-0.00902 21.5-0.0179 32.3-0.00917 11.1-0.0163 22.2-0.0205 33.3-3.94e-4 1.03-3.94e-4 1.03-7.96e-4 2.07-0.0013 3.43-0.00257 6.86-0.00381 10.3-0.0104 28.5-0.0283 56.9-0.0503 85.4h-22v-229c2.33-1.17 3.72-1.13 6.32-1.13z" fill="#1F2022"/>
<path transform="translate(1347,4)" d="m0 0v230h-22v-229c6.96-2.32 14.7-1 22-1z" fill="#1E2022"/>
<path transform="translate(402,3)" d="m0 0c4.88 3.62 4.88 3.62 6 7 1.01 0.598 2.02 1.2 3.06 1.81 0.969 0.722 1.94 1.44 2.94 2.19 0.375 3.25 0.375 3.25 0 6h-2v-2h-2v6c0.66 0.33 1.32 0.66 2 1-1.65 0.33-3.3 0.66-5 1 0.0105 0.781 0.0209 1.56 0.0317 2.37 0.0418 3.56 0.0677 7.13 0.0933 10.7 0.0168 1.23 0.0335 2.46 0.0508 3.72 0.0335 6.22-0.252 11.3-2.18 17.2-0.239 3.51-0.239 3.51-0.125 6.94 0.018 1.14 0.0361 2.29 0.0547 3.46 0.0232 0.857 0.0464 1.71 0.0703 2.6h1v6h-2c0.66 0.99 1.32 1.98 2 3 0.33-8.91 0.66-17.8 1-27h1c0.083 1.33 0.083 1.33 0.168 2.69 0.208 3.3 0.419 6.6 0.632 9.91 0.0915 1.43 0.182 2.86 0.271 4.28 0.128 2.06 0.261 4.11 0.395 6.17 0.118 1.85 0.118 1.85 0.238 3.75 0.235 2.54 0.572 4.77 1.3 7.21 1.32 0.33 2.64 0.66 4 1v-2h-2c-1.13-3.61-1.1-6.98-1.06-10.8 0.00902-1.17 0.018-2.34 0.0273-3.55 0.0116-0.892 0.0232-1.78 0.0352-2.7 2.17 3.25 2.32 4.63 2.56 8.44 0.221 3.31 0.523 6.37 1.44 9.56 1.94-0.276 1.94-0.276 4-1 0.66-0.99 1.32-1.98 2-3 0.145 4.98 0.288 9.95 0.427 14.9 0.0477 1.69 0.0962 3.37 0.146 5.06 0.322 11 0.496 22 0.427 33 11.5-1.97 11.5-1.97 22.3-6.23 1.73-0.77 1.73-0.77 4.73-0.77v3c0.99-0.33 1.98-0.66 3-1v2h2c-1.88 4.75-1.88 4.75-3 7h-3c-0.33 0.66-0.66 1.32-1 2h-2c-2.06 0.328-2.06 0.328-4 1-0.33 0.66-0.66 1.32-1 2 0.66 0.33 1.32 0.66 2 1-1.65 0.33-3.3 0.66-5 1v5h3v5h-4c-0.0619-0.784-0.124-1.57-0.188-2.38-0.268-0.866-0.536-1.73-0.812-2.62-2.38-1.18-2.38-1.18-5-2-0.681-0.742-0.681-0.742-1.38-1.5-2.49-2.3-5.39-2.71-8.62-3.5v3c-1.32 0.33-2.64 0.66-4 1-0.66-1.32-1.32-2.64-2-4-2.32 4.5-2.63 9.04-2 14 0.66 0.99 1.32 1.98 2 3 0.144-0.578 0.289-1.16 0.438-1.75 0.521-2.08 1.04-4.17 1.56-6.25 0.33 0.66 0.66 1.32 1 2 0.99 0.33 1.98 0.66 3 1 0.027 2.44 0.0468 4.87 0.0625 7.31 0.00838 0.69 0.0168 1.38 0.0254 2.09 0.0152 3.14-0.086 5.59-1.09 8.6h2v-17h1v73c-3.55 1.18-6.8 1.18-10.5 1.19-0.677 0.0122-1.35 0.0245-2.05 0.0371-3.71 0.011-5.28-0.111-8.45-2.22-0.294-3.05-0.391-5.89-0.361-8.93-0.00256-0.937-0.00513-1.87-0.00777-2.84-0.00497-3.16 0.0116-6.32 0.028-9.48 8.46e-4 -2.26 3.72e-4 -4.51-0.00133-6.77-8.64e-4 -6.14 0.0168-12.3 0.0377-18.4 0.0187-6.41 0.0205-12.8 0.0241-19.2 0.00828-10.8 0.027-21.5 0.0538-32.3 0.0275-11.1 0.0488-22.2 0.0615-33.3 7.88e-4 -0.683 0.00158-1.37 0.00239-2.07 0.00392-3.43 0.00771-6.86 0.0114-10.3 0.0311-28.5 0.0842-56.9 0.151-85.4z" fill="#221F22"/>
<path transform="translate(381,4)" d="m0 0v22h-77c-0.33 2.97-0.66 5.94-1 9h-4l1 16h-2v4h-5v-14c0.33 0.99 0.66 1.98 1 3h3c-0.33-3.3-0.66-6.6-1-10-0.99-0.33-1.98-0.66-3-1 0.33-0.66 0.66-1.32 1-2h-2c0.33 2.64 0.66 5.28 1 8h-2v6h-1v-7h-2c-0.33-0.66-0.66-1.32-1-2-0.33 0.99-0.66 1.98-1 3h-2v6c-1.49 0.495-1.49 0.495-3 1v-41c19.7-0.25 19.7-0.25 28.3-0.355 5.78-0.0718 11.6-0.144 17.3-0.217 4.67-0.0593 9.34-0.118 14-0.175 1.77-0.0219 3.53-0.0443 5.3-0.067 11.7-0.15 23.4-0.206 35.1-0.185z" fill="#1E2022"/>
<path transform="translate(21,4)" d="m0 0c0.33 69 0.66 138 1 209h-1v-5c-1.65-0.66-3.3-1.32-5-2 0.33-0.99 0.66-1.98 1-3-0.298-2.34-0.632-4.67-1-7v-4h-6v-3c-0.99-0.33-1.98-0.66-3-1-0.682-5.37-1.12-10.6-1-16h1l2 9 1-1c-0.00908-2.49-0.133-4.97-0.258-7.46 0.258-2.54 0.258-2.54 1.75-4.16 2.24-3.53 1.95-7.05 1.94-11.1 0.0102-0.878 0.0204-1.76 0.0309-2.66 0.0302-2.9 0.0394-5.8 0.0485-8.7 0.0168-2.01 0.035-4.02 0.0544-6.04 0.0475-5.29 0.0773-10.6 0.103-15.9 0.0298-5.4 0.0763-10.8 0.121-16.2 0.0861-10.6 0.153-21.2 0.209-31.8h-2c-2.47-8.88-2.62-17.8-3-27h-2v6l-2-1c-1.14-3.93-1.12-7.76-1.1-11.8l0.00977-3.92c0.00835-1.35 0.0168-2.71 0.0254-4.06 0.00502-1.37 0.00958-2.75 0.0137-4.12 0.0118-3.35 0.0282-6.71 0.0488-10.1-0.66-0.33-1.32-0.66-2-1-1.1-3.08-1.11-6-1.06-9.25 0.00902-0.892 0.018-1.78 0.0273-2.7 0.0116-0.675 0.0232-1.35 0.0352-2.05 2.4-0.169 4.79-0.335 7.19-0.5 0.674-0.0477 1.35-0.0954 2.04-0.145 3.61-0.247 7.15-0.355 10.8-0.355z" fill="#1E1F21"/>
<path transform="translate(898 11.3)" d="m0 0c3.37 2.52 5.73 5.35 8.27 8.7-1.76 3.8-3.96 6.09-7 9-0.501 0.557-1 1.11-1.52 1.69-1.54 1.69-1.54 1.69-4.48 4.31-3.36-0.262-5.24-1.81-7.75-3.94-6.27-4.84-12.5-5.55-20.2-5.06-6.82 1.27-9.93 4-13.8 9.62-3.17 9.02-0.81 16.9 2.81 25.4 0.669 1.67 1.34 3.33 2 5h-2v12h-2v2h-2c-0.33 0.99-0.66 1.98-1 3v-5h-2v2h-2c-0.33 0.99-0.66 1.98-1 3-0.33-3.96-0.66-7.92-1-12-1.65-0.33-3.3-0.66-5-1v-25h-2c0.186 1.09 0.371 2.19 0.562 3.31 0.438 3.69 0.438 3.69-0.562 6.69 0.276 2.01 0.602 4.01 1 6-0.99-0.33-1.98-0.66-3-1-0.133-0.736-0.266-1.47-0.402-2.23-0.177-0.976-0.353-1.95-0.535-2.96-0.174-0.963-0.348-1.93-0.527-2.92-0.488-2.64-1-5.27-1.54-7.89 2.97-0.495 2.97-0.495 6-1v-2h2c-0.186-0.763-0.371-1.53-0.562-2.31-0.568-3.49 0.232-5.15 2.06-8.12 1.59-2.41 1.59-2.41 2-4.81 0.165-0.578 0.33-1.16 0.5-1.75 0.99-0.33 1.98-0.66 3-1 0.996-2.46 0.996-2.46 1.62-5.38 0.24-0.977 0.48-1.95 0.727-2.96 0.214-0.879 0.428-1.76 0.648-2.66 1-3 1-3 3.11-4.13 0.871-0.327 1.74-0.655 2.64-0.992 0.861-0.333 1.72-0.665 2.61-1.01 13.9-4.57 28.1-2.23 40.4 5.44z" fill="#221E21"/>
<path transform="translate(1347,4)" d="m0 0v180c-0.66 0.33-1.32 0.66-2 1-0.66-0.33-1.32-0.66-2-1-1.88-11.2-1.12-23.1-1.06-34.4 0.00503-1.82 0.00959-3.63 0.0137-5.45 0.0109-4.39 0.0281-8.79 0.0488-13.2-1.98 0.495-1.98 0.495-4 1-1.65-3.3-0.904-6.9-0.688-10.5 0.0463-0.811 0.0927-1.62 0.14-2.46 0.373-5.83 1.17-11.4 2.55-17h2c-0.0206-1.24-0.0412-2.48-0.0625-3.75 0.0127-7.2 0.0127-7.2 3.06-10.2 0.167-3.58 0.167-3.58 0-7h-1c-0.0198-0.665-0.0396-1.33-0.0601-2.02-0.0957-3.04-0.205-6.07-0.315-9.11-0.0309-1.05-0.0619-2.09-0.0938-3.17-0.107-9.11-0.107-9.11-4.53-16.7-0.369-1.66-0.696-3.33-1-5-0.644-2.01-1.31-4.01-2-6-0.66 1.98-1.32 3.96-2 6-2-3-2-3-3-6-5.85 5.85-3.19 28-3.19 35.4-7.25e-4 1.27-0.00145 2.55-0.0022 3.86-0.0283 6.93-0.0283 6.93 1.19 13.7 0.217 4.57 0.217 4.57-1 7-0.156 2.41-0.258 4.79-0.316 7.2-0.0312 1.06-0.0312 1.06-0.063 2.14-0.0654 2.26-0.124 4.52-0.183 6.79-0.0432 1.53-0.0868 3.07-0.131 4.6-0.107 3.76-0.208 7.52-0.307 11.3h-1c-0.132-12.6-0.262-25.2-0.391-37.8-0.0598-5.85-0.12-11.7-0.182-17.5-0.522-49.8-0.522-49.8-0.427-70.7 6.96-2.32 14.7-1 22-1z" fill="#202122"/>
<path transform="translate(818,197)" d="m0 0c3.6 1.36 6.55 2.97 9.71 5.17 12 8.32 23.8 11.2 38.3 8.83 0.495 0.99 0.495 0.99 1 2 0.99-0.33 1.98-0.66 3-1 1.39-0.0667 2.79-0.0854 4.19-0.0625 1.89 0.0309 1.89 0.0309 3.81 0.0625 0.268-0.969 0.536-1.94 0.812-2.94 0.392-1.01 0.784-2.02 1.19-3.06 0.99-0.33 1.98-0.66 3-1v2c-0.66 0.33-1.32 0.66-2 1-0.33 0.99-0.66 1.98-1 3h7v5c0.66 0.33 1.32 0.66 2 1v2c1.98-0.267 1.98-0.267 4-1 0.495-1.49 0.495-1.49 1-3 0.495 1.49 0.495 1.49 1 3-0.33 0.66-0.66 1.32-1 2h3c-2.21 6.03-8.59 8.26-14 11-2.96 1.22-5.9 2.23-9 3-0.701 0.183-1.4 0.366-2.12 0.555-16.7 2.58-32.8-0.103-47.9-7.55-1.1-0.44-2.2-0.879-3.33-1.33-3.24-3.24-3.11-4.28-3.26-8.75 0.0399-2.39 0.111-4.78 0.211-7.17 0.0271-1.22 0.0541-2.44 0.082-3.7 0.0707-3.02 0.169-6.03 0.293-9.05z" fill="#202122"/>
<path transform="translate(182 106)" d="m0 0c0.891 0.0243 1.78 0.0485 2.7 0.0735 0.675 0.0312 1.35 0.0624 2.04 0.0945 0.0694 11.3 0.123 22.6 0.155 33.9 0.0157 5.25 0.037 10.5 0.0709 15.8 0.0325 5.06 0.0505 10.1 0.0583 15.2 0.00556 1.94 0.0164 3.87 0.0326 5.81 0.0217 2.7 0.0248 5.41 0.0234 8.11 0.0108 0.806 0.0216 1.61 0.0327 2.44-0.0125 2.23-0.0125 2.23-0.373 5.77-1.49 0.99-1.49 0.99-3 2-1.52 5.51-0.593 9.95 0.723 15.4 0.319 2.94-0.321 4.03-1.72 6.55 0.33 0.66 0.66 1.32 1 2h3v2c3.96 0.33 7.92 0.66 12 1v-2h3c0.33 0.66 0.66 1.32 1 2 0.619-0.165 1.24-0.33 1.88-0.5 3.72-0.594 7.26-0.526 11-0.438 2.1 0.179 2.1 0.179 3.11-1.06h-7c0.495-1.98 0.495-1.98 1-4h4c0.33-1.65 0.66-3.3 1-5 0.99-0.33 1.98-0.66 3-1 0.33 1.32 0.66 2.64 1 4 0.495-1.49 0.495-1.49 1-3h2v-2c1.45-0.402 1.45-0.402 2.94-0.812 1.52-0.588 1.52-0.588 3.06-1.19 0.495-1.49 0.495-1.49 1-3h2c0.268-0.619 0.536-1.24 0.812-1.88 1.19-2.12 1.19-2.12 4.19-4.12 0.736-3.57 0.736-3.57 1-7 0.99-0.33 1.98-0.66 3-1v6c0.454-0.495 0.908-0.99 1.38-1.5 1.62-1.5 1.62-1.5 3.62-1.5v3c1.98-0.267 1.98-0.267 4-1 0.495-1.49 0.495-1.49 1-3 0.33 0.99 0.66 1.98 1 3-2.25 3.95-5.17 7.44-8 11-0.675 0.856-1.35 1.71-2.05 2.59-14.4 17.2-32.1 22.8-53.7 25.1-6.08 0.468-12.2 0.4-18.2 0.312 2.62-1.75 4.04-2.39 7-3v-2c-0.66-0.33-1.32-0.66-2-1-1.18-3.45-1.52-7.15-2.06-10.8-0.177-1.17-0.353-2.34-0.535-3.55-0.199-1.34-0.199-1.34-0.402-2.7 1.65 0.66 3.3 1.32 5 2v-4c-0.66-0.33-1.32-0.66-2-1h2v-4c-1.32-0.66-2.64-1.32-4-2 0.495-0.99 0.495-0.99 1-2h-3c0.33 1.32 0.66 2.64 1 4-0.99-0.33-1.98-0.66-3-1-0.125-2.88-0.125-2.88 0-6 0.99-0.99 0.99-0.99 2-2 0.99 0.99 1.98 1.98 3 3v-6h7c-0.66-3.96-1.32-7.92-2-12h-2c-0.221-2.46-0.428-4.92-0.625-7.38l-0.195-2.12c-0.141-1.83-0.167-3.67-0.18-5.51 0.66-0.66 1.32-1.32 2-2v7h2c-0.33-2.31-0.66-4.62-1-7h2c-0.0838-1.21-0.168-2.42-0.254-3.67-0.672-10.7-0.664-21.1-0.00391-31.8 0.339-5.52 0.359-11 0.258-16.5h-3v10h-2v-10h-2c-0.33 3.3-0.66 6.6-1 10-0.99-1.32-1.98-2.64-3-4h-3c0.111-3.76 1.34-5.75 3.94-8.31 3.2-2.54 5.26-3 9.32-2.86z" fill="#1D1F21"/>
<path transform="translate(1049,80)" d="m0 0h9c0.154 10.4 0.302 20.8 0.443 31.1 0.0657 4.82 0.133 9.64 0.205 14.5 0.0694 4.65 0.134 9.3 0.195 13.9 0.0241 1.78 0.0501 3.55 0.0778 5.33 0.0385 2.48 0.0706 4.97 0.101 7.45 0.0129 0.737 0.0259 1.47 0.0392 2.23 0.0323 3.11-0.0684 5.47-1.06 8.45-1.32-0.33-2.64-0.66-4-1v2c0.66 0.33 1.32 0.66 2 1 0.33 5.94 0.66 11.9 1 18 0.99 0.33 1.98 0.66 3 1l0.586 6.15c0.137 0.61 0.273 1.22 0.414 1.85 0.66 0.33 1.32 0.66 2 1v-5c2 1 2 1 3.12 4.06 0.289 0.969 0.578 1.94 0.875 2.94h2c0.247 0.949 0.495 1.9 0.75 2.88 0.936 3.21 0.936 3.21 3.38 4.5 0.928 0.309 0.928 0.309 1.88 0.625v2h-13v-2h-2c-0.33-2.31-0.66-4.62-1-7h-3c-0.495-2.97-0.495-2.97-1-6h-3v-3h2c0.495-0.99 0.495-0.99 1-2-3.28 0.752-3.28 0.752-5 4v-4h-3c0.576-2.39 1.22-4.67 2-7h-2c-0.495 0.99-0.495 0.99-1 2h-2c-0.831-9.58-1.16-19.1-1.13-28.7 0.00541-2.17-1.17e-5 -4.33-0.00635-6.5-3e-3 -7.02 0.155-13.9 1.14-20.8h2c-0.185-4.34-0.185-4.34-2-8-0.0989-2.16-0.13-4.33-0.125-6.5-0.00258-1.19-0.00516-2.37-0.00781-3.59 0.133-2.91 0.133-2.91 1.13-3.91 0.232-1.51 0.412-3.04 0.562-4.56 0.0838-0.826 0.168-1.65 0.254-2.5 0.0606-0.638 0.121-1.28 0.184-1.93h1c0.0606-0.771 0.121-1.54 0.184-2.34 0.0838-1 0.168-2.01 0.254-3.04 0.0812-0.998 0.162-2 0.246-3.02 0.316-2.6 0.316-2.6 1.32-4.6z" fill="#221F22"/>
<path transform="translate(972,37)" d="m0 0c0.99 0.33 1.98 0.66 3 1 0.33 0.99 0.66 1.98 1 3h-2c0.186 0.681 0.371 1.36 0.562 2.06 0.523 3.51 0.0513 6.46-0.562 9.94-1.32 0.33-2.64 0.66-4 1-0.0248 4.47-0.0429 8.93-0.0549 13.4-0.00502 1.52-0.0118 3.04-0.0205 4.55-0.0122 2.19-0.0178 4.37-0.0222 6.56-0.00524 1.31-0.0105 2.63-0.0159 3.98 0.0967 2.99 0.41 5.61 1.11 8.51h2v55h-2v4h2c0.0198 0.619 0.0396 1.24 0.0601 1.88 0.0963 2.85 0.206 5.71 0.315 8.56 0.0309 0.974 0.0619 1.95 0.0938 2.95 0.215 5.36 0.814 10.3 2.09 15.5 0.741 3.65 0.687 7.25 0.624 11-6.45e-4 0.737-0.00129 1.47-0.00195 2.23-0.0283 3.48-0.264 6.6-1.19 9.96-0.0905 1.69-0.13 3.37-0.125 5.06-0.00258 0.857-0.00516 1.71-0.00781 2.6 0.0392 2.5 0.0392 2.5 1.13 5.34 0.0395 2.33 0.044 4.67 0 7h-2c0.99 2.48 0.99 2.48 2 5-1.98 0.33-3.96 0.66-6 1v2c-1.32-0.66-2.64-1.32-4-2v-3h2v-2c-0.99-0.33-1.98-0.66-3-1 0.66-0.99 1.32-1.98 2-3-0.33-0.33-0.66-0.66-1-1-0.0409-2.33-0.0424-4.67 0-7-1.3 1.07-1.3 1.07-1.06 3.56 0.0206 0.804 0.0412 1.61 0.0625 2.44-1.32-0.66-2.64-1.32-4-2v-24h1c0.33 2.64 0.66 5.28 1 8 0.33-3.3 0.66-6.6 1-10h1c0.33 4.95 0.66 9.9 1 15h1v-18h2c1.38 2.76 1.1 5.05 1.06 8.12-0.00902 1.1-0.018 2.19-0.0273 3.32-0.0116 0.843-0.0232 1.69-0.0352 2.55 1.23-2.46 1.21-4.26 1.32-7.01 0.0628-1.48 0.0628-1.48 0.127-2.99 0.0393-1.03 0.0786-2.07 0.119-3.13 0.0432-1.04 0.0864-2.08 0.131-3.15 0.106-2.57 0.208-5.15 0.307-7.72-0.66-0.33-1.32-0.66-2-1v-3h-4c0.0412-1.05 0.0825-2.1 0.125-3.19 0.0121-3.66-0.47-7.05-1.12-10.6-1.19-7.55-1.28-15-1.24-22.6 8.59e-4 -1.47 9.36e-4 -2.94 2.9e-4 -4.41 0.00114-3.88 0.0153-7.76 0.0329-11.6 0.00977-2.4 0.0156-4.8 0.02-7.2 0.0439-23.8 0.288-47.6 1.18-71.3h3c0.33-0.66 0.66-1.32 1-2 0.99 0.66 1.98 1.32 3 2v-4z" fill="#221F22"/>
<path transform="translate(421 3.31)" d="m0 0c0.979 0.0471 1.96 0.0941 2.97 0.143 16 0.861 16 0.861 21.3 3.54-0.33 0.99-0.66 1.98-1 3h-3c0.66 0.33 1.32 0.66 2 1v2c-2.31-0.33-4.62-0.66-7-1v3c1.13 0.124 2.27 0.248 3.44 0.375 1.18 0.206 2.35 0.412 3.56 0.625 0.495 0.99 0.495 0.99 1 2-1.65 0.33-3.3 0.66-5 1v-2h-3v2c-3-1-3-1-5-2v2h-2c-0.33 0.66-0.66 1.32-1 2v-2c-0.99 0.33-1.98 0.66-3 1-0.733 2.02-0.733 2.02-1 4-0.66-0.33-1.32-0.66-2-1 0.33 0.99 0.66 1.98 1 3-0.504 1.85-1.01 3.7-1.52 5.54-0.982 4.98-1.45 11.2 0.0178 16.1 0.726 3.38 0.64 6.75 0.631 10.2 0.00144 1.14 0.00144 1.14 0.0029 2.3 6.79e-4 1.6-0.00116 3.21-0.00534 4.81-0.00534 2.44-5e-5 4.89 0.00635 7.33-6.61e-4 1.56-0.00194 3.12-0.00391 4.68 0.00202 0.727 0.00405 1.45 0.00613 2.2-0.0171 3.73-0.248 7.18-1.14 10.8-2.38-0.25-2.38-0.25-5-1-2.98-4.48-2.63-9.8-3-15v14h2v2c-1.88-0.25-1.88-0.25-4-1-2.62-3.66-2.44-7.91-2.62-12.2-0.0387-0.745-0.0773-1.49-0.117-2.26-0.0939-1.83-0.177-3.66-0.258-5.49-0.33 4.95-0.66 9.9-1 15-0.99-0.99-1.98-1.98-3-3v-2h2c-0.325-0.509-0.65-1.02-0.984-1.54-1.38-3.34-1.28-6.17-1.27-9.77-0.00773-1.91-0.00773-1.91-0.0156-3.86 0.224-3.22 0.827-5.62 1.79-8.66 1.16-5.24 0.967-10.8 1.1-16.1 0.0387-1.26 0.0773-2.51 0.117-3.81 0.0938-3.09 0.18-6.17 0.258-9.26 1.32-0.33 2.64-0.66 4-1-0.33-0.33-0.66-0.66-1-1-0.0408-2-0.0425-4 0-6h2v2h2c-0.954-5.23-0.954-5.23-4.62-8.75-0.784-0.412-1.57-0.825-2.38-1.25v-3c-0.99-0.33-1.98-0.66-3-1v-2c5.62-1.25 11-0.976 16.7-0.688z" fill="#1E2022"/>
<path transform="translate(129 3.9)" d="m0 0c1.28 0.00483 1.28 0.00483 2.58 0.00977 0.889 0.00838 1.78 0.0168 2.7 0.0254 0.897 0.00451 1.79 0.00902 2.72 0.0137 2.22 0.0118 4.44 0.0283 6.66 0.0488 0.33 0.66 0.66 1.32 1 2-2.64-0.33-5.28-0.66-8-1-0.33 1.98-0.66 3.96-1 6h4c0.0553 0.692 0.111 1.38 0.168 2.1 0.252 3.11 0.511 6.23 0.77 9.34 0.087 1.09 0.174 2.18 0.264 3.3 0.087 1.03 0.174 2.07 0.264 3.13 0.118 1.44 0.118 1.44 0.238 2.9 0.0638 2.19 0.0638 2.19 1.3 3.22 0.0867 1.49 0.107 2.98 0.0977 4.47-0.00322 0.899-0.00645 1.8-0.00977 2.72-0.00838 0.946-0.0168 1.89-0.0254 2.87-0.00451 0.949-0.00902 1.9-0.0137 2.88-0.0118 2.35-0.0283 4.71-0.0488 7.06h-1c-0.33-2.97-0.66-5.94-1-9v12c0.99-0.495 0.99-0.495 2-1 0.788 2.79 1.13 5.27 1.13 8.16 0.00201 0.789 0.00403 1.58 0.0061 2.39-0.00459 0.829-0.00918 1.66-0.0139 2.51-0.00266 0.848-0.00532 1.7-0.00806 2.57-0.116 15.4-0.116 15.4-2.12 21.4h-2c-0.495-9.4-0.495-9.4-1-19h-9c-1.12-7.62-1.12-7.62 0-11h-2c0.0722 0.906 0.144 1.81 0.219 2.75 0.516 6.77 1.01 13.5 0.781 20.3-0.495 0.495-0.495 0.495-1 1-0.162 1.87-0.162 1.87-0.125 4.06-0.00258 0.733-0.00516 1.47-0.00781 2.22 0.0971 2.85 0.0971 2.85 0.635 6.21 0.65 5.12 0.623 10.2 0.595 15.4-0.00141 1.01-0.00283 2.02-0.00429 3.06-0.00556 3.2-0.0181 6.4-0.0309 9.6-0.00502 2.18-0.00958 4.36-0.0137 6.54-0.011 5.32-0.0277 10.6-0.0488 16h-2c-0.177-5.81-0.342-11.6-0.5-17.4-0.024-0.884-0.048-1.77-0.0728-2.68-0.418-15.8-0.506-31.6-0.39-47.5 0.0428-7.18 0.069-14.3-0.801-21.4-1.06-9.03-1.41-20.7 2.76-29h2c-0.0619-1.89-0.0619-1.89-0.125-3.81-0.114-3.48 0.0657-4.1 2.12-7.19h-2c-0.66 2.31-1.32 4.62-2 7h-1c-0.0146-0.56-0.0292-1.12-0.0442-1.7-0.0745-2.54-0.171-5.08-0.268-7.62-0.0226-0.881-0.0451-1.76-0.0684-2.67-0.0354-0.848-0.0709-1.7-0.107-2.57l-0.0793-2.36c-0.529-2.55-1.55-3.36-3.43-5.08v-2c2.35-1.17 3.74-1.12 6.35-1.1z" fill="#221F22"/>
<path transform="translate(136,76)" d="m0 0h2c0.897 3.07 1.12 5.79 1.1 8.98-0.00322 0.935-0.00645 1.87-0.00977 2.83-0.00838 0.968-0.0168 1.94-0.0254 2.93-0.00451 0.984-0.00902 1.97-0.0137 2.98-0.0118 2.42-0.0282 4.85-0.0488 7.27h1v87h2v15h-2v2h-2c0.0722 0.641 0.144 1.28 0.219 1.94 1.58 14.7 1.58 14.7-1.22 19.1-0.33-1.32-0.66-2.64-1-4-0.66 0.99-1.32 1.98-2 3h-2c-0.33-0.99-0.66-1.98-1-3-0.66 0.99-1.32 1.98-2 3v-7c-1.32-0.33-2.64-0.66-4-1-0.392-16.1 0.81-32 2-48h2c-0.33 8.25-0.66 16.5-1 25 1.57-7.84 2.45-14.5 2.69-22.3 0.0412-1.26 0.0825-2.53 0.125-3.83 0.488-18.1-0.0822-36.3-0.493-54.4-0.538-24.9-0.538-24.9 0.681-36.4 3 2 3 2 4 5 0.132 3.96 0.0698 7.52-0.5 11.4-0.884 6.3-0.781 12.3 0.5 18.6h-2v34h2v7h-2c0.66 9.9 1.32 19.8 2 30 0.685-14.1 1.1-28.1 0.844-42.2-0.0124-0.689-0.0249-1.38-0.0377-2.09-0.0919-4.95-0.198-9.89-0.306-14.8-0.123-5.67-0.24-11.3-0.344-17-0.0124-0.67-0.0249-1.34-0.0377-2.03-0.17-9.66-0.0745-19.2 0.881-28.8z" fill="#221F22"/>
<path transform="translate(219,89)" d="m0 0 4 1v8c0.66-0.99 1.32-1.98 2-3 4.82 1.52 8.06 4.26 11.8 7.5 0.896 0.748 0.896 0.748 1.81 1.51 1.5 1.28 2.95 2.63 4.38 3.99v2h2c1.61 2.07 3.1 4.14 4.56 6.31 0.412 0.595 0.824 1.19 1.25 1.8 1.78 2.61 3.19 4.87 4.19 7.88h-2c0.495 2.97 0.495 2.97 1 6h-3v2h4c0.495 2.97 0.495 2.97 1 6h2v3c-1.94-0.312-1.94-0.312-4-1-0.33-0.99-0.66-1.98-1-3l1-2h-3c0.495 2.47 0.495 2.47 1 5-2.47 0.495-2.47 0.495-5 1 0.0232 1.09 0.0464 2.17 0.0703 3.29 0.0188 1.45 0.037 2.89 0.0547 4.34 0.0168 0.713 0.0335 1.43 0.0508 2.16 0.0407 4.43-0.271 8.11-2.18 12.2-0.99 0.33-1.98 0.66-3 1-0.098-1.17-0.196-2.34-0.297-3.55-1.41-15.4-4.88-29.7-16.6-40.7-4.45-3.61-9.3-6.66-14.1-9.73-0.99-0.66-1.98-1.32-3-2 0.99-0.33 1.98-0.66 3-1v-2c-1.77-1.22-1.77-1.22-4-2-2.23 0.783-2.23 0.783-4 2-1.32-0.99-2.64-1.98-4-3 1.66-1.66 3.59-1.21 5.88-1.25 6.08 0.0474 11.4 1.38 17.1 3.25 1.22 0.392 2.43 0.784 3.69 1.19 0.763 0.268 1.53 0.536 2.31 0.812 0.33 1.98 0.66 3.96 1 6 2.64 0.66 5.28 1.32 8 2-0.66-1.03-1.32-2.06-2-3.12-1.97-3.41-2.39-5.9-2-9.88-5.44-0.495-5.44-0.495-11-1-0.33-1.65-0.66-3.3-1-5h-2v-8z" fill="#202122"/>
<path transform="translate(1047,26)" d="m0 0c0.66 0.66 1.32 1.32 2 2 0.99-0.66 1.98-1.32 3-2 1 1 1 1 1.06 3.56-0.0206 0.804-0.0412 1.61-0.0625 2.44h2v-6c0.99 0.33 1.98 0.66 3 1-0.66 3.3-1.32 6.6-2 10h1c0.33-1.98 0.66-3.96 1-6h1c0.33 6.27 0.66 12.5 1 19h2v8h-1c-0.0247 6.19-0.0429 12.4-0.0549 18.6-0.00503 2.11-0.0119 4.21-0.0205 6.32-0.0121 3.03-0.0178 6.06-0.0222 9.08-0.00516 0.942-0.0103 1.88-0.0156 2.85-7.55e-5 0.881-1.51e-4 1.76-2.29e-4 2.67-0.00333 1.16-0.00333 1.16-0.00673 2.34 0.0522 2.18 0.0522 2.18 0.69 4.37 0.142 0.588 0.284 1.18 0.43 1.78-0.33 0.33-0.66 0.66-1 1-0.101 2.87-0.14 5.72-0.133 8.59-9.57e-4 0.862-0.00191 1.72-0.0029 2.61-6.82e-4 1.83 0.00117 3.65 0.00534 5.48 0.00535 2.8 5.51e-5 5.61-0.00635 8.41 6.61e-4 1.77 0.00194 3.54 0.00391 5.31-0.00202 0.845-0.00405 1.69-0.00613 2.56-0.36 3.83-0.36 3.83 1.14 7.03 0.232 4.33 0.0808 8.1-0.938 12.3-2.53 10.1-2.53 10.1-0.0625 19.7-0.375 2.25-0.375 2.25-1 4-1.32 0.33-2.64 0.66-4 1-0.0606-1.28-0.121-2.55-0.184-3.87-0.0844-1.67-0.169-3.34-0.254-5.01-0.0393-0.842-0.0786-1.68-0.119-2.55-0.0628-1.21-0.0628-1.21-0.127-2.44-0.0367-0.744-0.0733-1.49-0.111-2.25-0.105-1.97-0.105-1.97-1.21-3.88-0.99-0.33-1.98-0.66-3-1h2c0.495-0.99 0.495-0.99 1-2 1.32 0.66 2.64 1.32 4 2v-83h-4c-0.33 0.66-0.66 1.32-1 2v-2h-4c-0.33 4.62-0.66 9.24-1 14-2-1-2-1-3.11-4.11-0.882-3.87-1.12-7.18-1.08-11.1 0.00283-0.656 0.00566-1.31 0.00858-1.99 0.0111-2.07 0.0362-4.14 0.0617-6.2 0.01-1.41 0.0192-2.83 0.0273-4.24 0.0219-3.44 0.0563-6.88 0.0977-10.3h2c-0.00786-1.1-0.00786-1.1-0.0159-2.22-0.0208-3.32-0.0338-6.65-0.0466-9.97-0.00838-1.15-0.0168-2.3-0.0254-3.49-0.00322-1.11-0.00645-2.22-0.00977-3.37-0.00786-1.53-0.00786-1.53-0.0159-3.09 0.108-2.73 0.496-5.2 1.11-7.86z" fill="#1E1F22"/>
<path transform="translate(1286,151)" d="m0 0c0.495 1.98 0.495 1.98 1 4h3c0.66-1.32 1.32-2.64 2-4v4h5v2h-2c0.157 0.804 0.157 0.804 0.316 1.62 1.14 11-6.49 20.9-12.8 29.2-1.15 1.39-2.32 2.76-3.5 4.12-0.687 0.807-1.37 1.61-2.08 2.45-11.3 13-24.8 23.9-40.9 30.6h-2v-2h-5v2c-3-1-3-1-5-2v2h-3c0.33-1.65 0.66-3.3 1-5 2.97-0.495 2.97-0.495 6-1v-2h3c-0.495-2.47-0.495-2.47-1-5 2.38-0.125 2.38-0.125 5 0 0.66 0.66 1.32 1.32 2 2 2.63-1.52 4.84-2.84 7-5v2h4v-7h3v-2c4.95-0.495 4.95-0.495 10-1-0.495-3.46-0.495-3.46-1-7h2v2h2v-2h4v-8c1.32 0.33 2.64 0.66 4 1 0.33-0.99 0.66-1.98 1-3h3v-2h-3c0.33-1.32 0.66-2.64 1-4h12v-10c-0.99-0.33-1.98-0.66-3-1 0.217-0.736 0.433-1.47 0.656-2.23 0.278-0.976 0.557-1.95 0.844-2.96 0.418-1.44 0.418-1.44 0.844-2.92 0.623-2.75 0.779-5.09 0.656-7.89z" fill="#1E1F21"/>
<path transform="translate(1159,29)" d="m0 0h1c0.201 20.1 0.384 40.3 0.547 60.4 0.0758 9.35 0.157 18.7 0.252 28 0.083 8.15 0.155 16.3 0.214 24.5 0.0316 4.31 0.0686 8.63 0.119 12.9 0.0471 4.07 0.0794 8.14 0.101 12.2 0.0104 1.49 0.0259 2.97 0.0473 4.45 0.16 11.4-0.685 22.2-6.78 32.1-0.882 1.47-0.882 1.47-1.78 2.98-1.72 2.4-1.72 2.4-4.72 4.4v-2c-0.99 0.33-1.98 0.66-3 1 0.142-1.75 0.289-3.5 0.438-5.25 0.0812-0.975 0.162-1.95 0.246-2.95 0.267-2.36 0.67-4.52 1.32-6.8h-2c0.99-1.98 0.99-1.98 2-4v3h9v-163c0.33 1.32 0.66 2.64 1 4h2v-6z" fill="#1D1F21"/>
<path transform="translate(1182,176)" d="m0 0h1v8h2c0.33-1.65 0.66-3.3 1-5h1v14h2c-0.33-1.32-0.66-2.64-1-4h2c-0.309-1.08-0.309-1.08-0.625-2.19-0.435-3.26 0.208-4.9 1.62-7.81h1v14c0.66 0.33 1.32 0.66 2 1-0.66 0.33-1.32 0.66-2 1 1.3 4.08 1.3 4.08 3 8 0.0397 1.67 0.0438 3.33 0 5h2c0.33-2.31 0.66-4.62 1-7h2v7h2v7h-2v3c2.64 0.33 5.28 0.66 8 1-0.33 0.66-0.66 1.32-1 2-2.06 0.625-2.06 0.625-4 1v-2h-2c-2.35 1.9-2.35 1.9-2.12 5.12 0.0412 0.949 0.0825 1.9 0.125 2.88h3v6c-6.6 0.33-13.2 0.66-20 1v-59z" fill="#221F22"/>
<path transform="translate(0,5)" d="m0 0h1c0.0606 0.675 0.121 1.35 0.184 2.05 0.0838 0.892 0.168 1.78 0.254 2.7 0.0812 0.882 0.162 1.76 0.246 2.67 0.242 2.48 0.242 2.48 0.824 4.45 0.537 2.32 0.651 4.42 0.695 6.8 0.0193 0.94 0.0387 1.88 0.0586 2.85 0.0161 1.03 0.0322 2.06 0.0489 3.12 0.0203 1.1 0.0406 2.19 0.0616 3.32 0.0657 3.69 0.123 7.38 0.179 11.1 0.0208 1.29 0.0416 2.58 0.0631 3.9 0.526 32.8 0.574 65.5 0.571 98.3 3.55e-4 6.58 0.0121 13.2 0.0259 19.7 0.0131 6.47 0.0184 12.9 0.0178 19.4-2.52e-4 3.81 0.00245 7.62 0.0132 11.4 0.00972 3.54 0.00973 7.08 0.00248 10.6-0.00153 1.89 0.00675 3.79 0.0154 5.68-0.0262 7.18-0.698 13.9-2.26 20.9h-2v-229z" fill="#212122"/>
<path transform="translate(1199,33)" d="m0 0c0.99 0.33 1.98 0.66 3 1v2h1v160h-1c-0.0198-0.883-0.0396-1.77-0.0601-2.67-0.0783-3.29-0.165-6.58-0.257-9.87-0.0382-1.42-0.073-2.84-0.104-4.26-0.0459-2.05-0.104-4.1-0.164-6.14-0.0471-1.85-0.0471-1.85-0.0952-3.73-0.12-3.21-0.12-3.21-1.33-5.47-1.39-3.99-1.25-7.67-1.2-11.9 0.00131-0.898 0.00263-1.8 0.00398-2.72 0.00648-2.96 0.0269-5.93 0.047-8.89 0.00627-2.06 0.0115-4.13 0.0158-6.19 0.0133-5.43 0.0377-10.9 0.0654-16.3 0.0431-8.69 0.0729-17.4 0.096-26.1 0.0102-3.03 0.0273-6.06 0.045-9.1 0.00683-1.86 0.0134-3.73 0.0198-5.59 0.00674-0.84 0.0135-1.68 0.0204-2.55 0.00838-4.33-0.377-8.31-1.1-12.6 0.33-0.66 0.66-1.32 1-2h-2v3h-2c0.165 1.28 0.33 2.56 0.5 3.88 0.267 2.07 0.5 4.04 0.5 6.12h-3c-0.33 0.66-0.66 1.32-1 2-0.284-34.1-0.284-34.1 3-39 0.99-0.33 1.98-0.66 3-1 0.33-0.66 0.66-1.32 1-2z" fill="#202122"/>
<path transform="translate(402,3)" d="m0 0c4.88 3.62 4.88 3.62 6 7 1.01 0.598 2.02 1.2 3.06 1.81 0.969 0.722 1.94 1.44 2.94 2.19 0.375 3.25 0.375 3.25 0 6h-2v-2h-2v6c0.66 0.33 1.32 0.66 2 1-1.65 0.33-3.3 0.66-5 1 0.0105 0.781 0.0209 1.56 0.0317 2.37 0.0418 3.56 0.0677 7.13 0.0933 10.7 0.0168 1.23 0.0335 2.46 0.0508 3.72 0.0335 6.22-0.252 11.3-2.18 17.2-0.239 3.51-0.239 3.51-0.125 6.94 0.018 1.14 0.0361 2.29 0.0547 3.46 0.0232 0.857 0.0464 1.71 0.0703 2.6h1v6h-2c0.138 3.15 0.287 6.29 0.438 9.44 0.0393 0.898 0.0786 1.8 0.119 2.72 0.0419 0.854 0.0838 1.71 0.127 2.59 0.055 1.19 0.055 1.19 0.111 2.4 0.011 1.87 0.011 1.87 1.21 2.86 0.0406 1.67 0.0427 3.33 0 5h-2c0.0909 0.701 0.182 1.4 0.275 2.12 0.411 3.19 0.818 6.38 1.22 9.56 0.143 1.1 0.286 2.21 0.434 3.34 0.135 1.07 0.271 2.13 0.41 3.23 0.126 0.979 0.251 1.96 0.381 2.97 0.261 2.62 0.399 5.14 0.275 7.77-0.33 0.33-0.66 0.66-1 1-0.1 1.94-0.131 3.89-0.133 5.84-0.00129 1.21-0.00258 2.42-0.00391 3.67 0.00387 1.28 0.00773 2.55 0.0117 3.87-0.00387 1.24-0.00773 2.48-0.0117 3.75 0.00691 6.55 0.272 13 0.945 19.5 0.259 3.24 0.0662 6.35-0.246 9.58-0.102 1.11-0.204 2.21-0.309 3.36-0.126 1.22-0.126 1.22-0.254 2.46h-2c0.33 0.99 0.66 1.98 1 3-0.938 2.19-0.938 2.19-2 4-0.747-5.32-1.14-10.5-1.12-15.9-8.54e-4 -0.75-0.00171-1.5-0.00259-2.27-0.00164-2.49 0.00383-4.98 0.00932-7.47 2.82e-4 -1.79 1.23e-4 -3.59-4.43e-4 -5.38-2.86e-4 -4.85 0.00558-9.71 0.0126-14.6 0.00626-5.08 0.00684-10.2 0.00803-15.2 0.0031-9.61 0.0113-19.2 0.0213-28.8 0.0112-10.9 0.0167-21.9 0.0217-32.8 0.0104-22.5 0.028-45 0.0503-67.5z" fill="#212122"/>
<path transform="translate(97,224)" d="m0 0c0.495 1.49 0.495 1.49 1 3h2v7c-11.8 0.0232-23.6 0.0409-35.4 0.0518-5.48 0.00522-11 0.0123-16.4 0.0236-5.28 0.0109-10.6 0.0168-15.9 0.0194-2.02 0.00185-4.03 0.00546-6.05 0.0109-2.82 0.00724-5.65 0.00826-8.47 0.0078-0.837 0.0036-1.67 0.00719-2.53 0.0109-3.6-0.00641-6.81-0.153-10.3-1.12 0.33-1.32 0.66-2.64 1-4 1.32-0.33 2.64-0.66 4-1-0.33-0.99-0.66-1.98-1-3h3c0.33 1.32 0.66 2.64 1 4 2.88-0.882 2.88-0.882 5-2 0.99 1.32 1.98 2.64 3 4v-4h2c0.99 1.49 0.99 1.49 2 3 2.65 0.801 2.65 0.801 5.62 1.19 1 0.159 2.01 0.317 3.04 0.48 0.771 0.11 1.54 0.219 2.34 0.332-0.186-0.763-0.371-1.53-0.562-2.31-0.438-2.69-0.438-2.69 0.562-5.69 2.41-1.2 3.95-1.1 6.62-1.06 1.23 0.0135 1.23 0.0135 2.48 0.0273 0.626 0.0116 1.25 0.0232 1.9 0.0352v4h2.34c10.7 0 10.7 0 12.7 0.562 0.959 0.217 0.959 0.217 1.94 0.438 0.33-0.33 0.66-0.66 1-1 2.86-0.4 5.7-0.752 8.56-1.06 0.806-0.0909 1.61-0.182 2.44-0.275 2-0.225 4-0.444 5.99-0.662-4.95-0.99-4.95-0.99-10-2 7.52-5.02 17.8-4.06 25 1z" fill="#1E1F22"/>
<path transform="translate(980,37)" d="m0 0h1c0.929 7.47 1.11 14.8 1.02 22.3-0.00961 1.19-0.0192 2.38-0.0291 3.61-0.0271 3.23-0.059 6.47-0.0931 9.7-0.0346 3.39-0.063 6.79-0.0921 10.2-0.0559 6.41-0.117 12.8-0.181 19.2-0.072 7.3-0.138 14.6-0.203 21.9-0.134 15-0.276 30-0.424 45-1.98 0.99-1.98 0.99-4 2-2.56-3.78-2-7.36-1.56-11.7 0.231-2.44 0.418-4.86 0.562-7.31-0.33-0.33-0.66-0.66-1-1-0.105-2.43-0.14-4.82-0.125-7.25 0.00193-0.759 0.00387-1.52 0.00586-2.3 0.0487-6.67 0.395-13.3 0.761-20 0.582-11.5 0.447-23 0.358-34.5h-2c-1.26-5.89-0.758-11.4-0.258-17.3 0.367-5.23 0.344-10.4 0.258-15.7 1.32 0.33 2.64 0.66 4 1-0.0232-1.13-0.0464-2.26-0.0703-3.43-0.0188-1.48-0.037-2.96-0.0547-4.45-0.0168-0.746-0.0335-1.49-0.0508-2.26-0.0176-1.96 0.0726-3.91 0.176-5.86 0.66-0.66 1.32-1.32 2-2z" fill="#212122"/>
<path transform="translate(471,196)" d="m0 0c1.34 0.312 2.67 0.648 4 1h3c1.69 1.64 3.35 3.31 5 5 2.17 1.3 2.17 1.3 4 2v2c1.27-0.186 1.27-0.186 2.56-0.375 4.16 0.454 5.9 1.56 8.97 4.31 2.95 4.16 2.18 9.06 1.91 13.9-0.0316 1.07-0.0632 2.14-0.0957 3.24-0.0822 2.63-0.197 5.26-0.342 7.88-4.52-0.758-6.93-2.15-10.6-5-1.04-0.806-2.08-1.61-3.15-2.44-0.537-0.42-1.07-0.841-1.63-1.27-1.67-1.3-3.37-2.56-5.08-3.81-0.823-0.606-0.823-0.606-1.66-1.22-1.54-1.13-3.08-2.27-4.62-3.4-2.3-1.85-2.3-1.85-3.3-3.85 0.99-0.66 1.98-1.32 3-2-0.495-1.18-0.99-2.35-1.5-3.56-1.48-3.92-1.84-7.22-1.5-11.4 0.33-0.33 0.66-0.66 1-1z" fill="#1E2022"/>
<path transform="translate(1286,78)" d="m0 0c3.02 0.588 6.02 1.23 9 2v4h3c-0.33 0.99-0.66 1.98-1 3h-1v2h2c0.66 4.29 1.32 8.58 2 13 0.33-1.98 0.66-3.96 1-6h2c3.72 21 1.97 40.6-4 61h-1c0.33-2.97 0.66-5.94 1-9h-9v-2h2v-2h2c0.774-3.76 1.44-7.53 2.06-11.3 0.177-1.07 0.353-2.14 0.535-3.24 0.133-0.808 0.266-1.62 0.402-2.45h-5v-6h1v5h2v-14c-1.32-0.33-2.64-0.66-4-1v-5h3c0.33 1.32 0.66 2.64 1 4-0.0722-0.976-0.144-1.95-0.219-2.96-0.0928-1.27-0.186-2.54-0.281-3.86-0.0928-1.26-0.186-2.53-0.281-3.83-0.138-2.12-0.219-4.24-0.219-6.36-1.32-0.33-2.64-0.66-4-1 0.66-1.98 1.32-3.96 2-6h-3v-2h-4c0.312-1.94 0.312-1.94 1-4 0.99-0.33 1.98-0.66 3-1-0.99-0.33-1.98-0.66-3-1z" fill="#1E1F21"/>
<path transform="translate(971 4.77)" d="m0 0c1.41 2.27e-4 1.41 2.27e-4 2.85 4.58e-4 1 0.0103 2 0.0206 3.04 0.0313 1.04 0.00283 2.07 0.00566 3.14 0.00858 3.3 0.0112 6.6 0.0363 9.9 0.0617 2.24 0.01 4.48 0.0192 6.72 0.0273 5.49 0.022 11 0.0555 16.5 0.0977-0.33 0.66-0.66 1.32-1 2h-4c-0.33 1.65-0.66 3.3-1 5-1.32 0.33-2.64 0.66-4 1-0.495-1.48-0.495-1.48-1-3-0.33 1.98-0.66 3.96-1 6h8v3h-10v-2h-2c-0.33 0.99-0.66 1.98-1 3-0.495-1.48-0.495-1.48-1-3h-3c-0.33 0.99-0.66 1.98-1 3-8.57 0.443-18.7-0.145-26-5 0.33-1.65 0.66-3.3 1-5h-4c-0.33-0.99-0.66-1.98-1-3 3.44-1.55 6.11-2.25 9.88-2.23z" fill="#221F22"/>
<path transform="translate(137,5)" d="m0 0c5.75-0.125 5.75-0.125 8 1v194h-1c-0.33-5.61-0.66-11.2-1-17h-1c-1.1-26-1.1-26-1.12-38.1-0.00451-0.784-0.00902-1.57-0.0137-2.37 0.0144-5.31 0.0144-5.31 1.14-7.56 0.17-2.79 0.283-5.55 0.352-8.34 0.0232-0.837 0.0463-1.67 0.0702-2.54 0.0477-1.78 0.0929-3.56 0.136-5.33 0.0663-2.69 0.144-5.37 0.224-8.06 0.318-11.8 0.318-11.8-0.592-23.6-0.279-3.2 0.159-6.24 0.541-9.41 0.333-3.4 0.453-6.78 0.52-10.2 0.0258-1.17 0.0516-2.35 0.0781-3.56-0.00182-3-0.00182-3-1.83-4.44-1.5-1.56-1.5-1.56-1.84-3.46 0.0157-0.696 0.0314-1.39 0.0476-2.11 0.00967-0.757 0.0193-1.51 0.0293-2.29 0.0251-0.786 0.0503-1.57 0.0762-2.38 0.0203-1.2 0.0203-1.2 0.041-2.42 0.0353-1.97 0.0891-3.93 0.146-5.9h1c0.33 1.65 0.66 3.3 1 5 0.0269-1.81 0.0463-3.62 0.0625-5.44 0.0116-1.01 0.0232-2.02 0.0352-3.06 0.188-2.44 0.188-2.44-1.1-3.5-0.24-2.55-0.424-5.07-0.562-7.62-0.0432-0.7-0.0864-1.4-0.131-2.12-0.259-4.43-0.347-8.82-0.307-13.3h-4c0.33-1.98 0.66-3.96 1-6z" fill="#212223"/>
<path transform="translate(376,213)" d="m0 0h5v21h-99v-4h3v-3h-3v-2c0.908-0.144 1.82-0.289 2.75-0.438 2.46-0.427 4.84-0.913 7.25-1.56v3h4c0.33-0.66 0.66-1.32 1-2v2h4c-0.66-1.65-1.32-3.3-2-5 4.38 0.52 8.69 1.06 13 2v1c-2.31 0.33-4.62 0.66-7 1 1.32 0.66 2.64 1.32 4 2l-2 1v3c5.53 0.786 10.9 1.14 16.4 1.1 0.766-0.00141 1.53-0.00283 2.32-0.00429 2.41-0.00554 4.83-0.0181 7.24-0.0309 1.65-0.00502 3.3-0.00958 4.95-0.0137 4.02-0.0109 8.03-0.0282 12.1-0.0488v-3c3.96-0.33 7.92-0.66 12-1v-2h-7v-2c4.45-0.495 4.45-0.495 9-1 0.495 4.46 0.495 4.46 1 9 0.99-0.495 0.99-0.495 2-1 1.54-0.0695 3.08-0.0845 4.62-0.0625 1.23 0.0135 1.23 0.0135 2.48 0.0273 0.626 0.0116 1.25 0.0232 1.9 0.0352-0.495-1.49-0.495-1.49-1-3 0.967-0.306 0.967-0.306 1.95-0.617 2.36-1.25 2.36-1.25 2.66-4.2 0.0464-1.09 0.0928-2.18 0.141-3.3 0.0851-1.64 0.0851-1.64 0.172-3.32 0.0258-0.843 0.0516-1.69 0.0781-2.55-1.32-0.33-2.64-0.66-4-1z" fill="#1E2022"/>
<path transform="translate(856,15)" d="m0 0c0.33 0.66 0.66 1.32 1 2h3v3h-3v2h3c0.66-1.98 1.32-3.96 2-6 11 0.35 11 0.35 15.2 3.06 0.577 0.639 1.15 1.28 1.75 1.94h-5c-0.33 0.99-0.66 1.98-1 3-1.98-0.33-3.96-0.66-6-1v-3c-0.33 0.99-0.66 1.98-1 3 1.32 0.66 2.64 1.32 4 2-0.808 0.159-1.62 0.317-2.45 0.48-7.88 1.72-11.6 3.42-16.4 10.1-1.77 5.11-1.42 10.1-1.19 15.4-1.49 0.495-1.49 0.495-3 1v-5h-2c-0.33 0.66-0.66 1.32-1 2-0.99-0.99-1.98-1.98-3-3-0.495 1.48-0.495 1.48-1 3v-9c-0.351-0.639-0.701-1.28-1.06-1.94-0.938-2.06-0.938-2.06 0.0625-5.06 0.495-0.804 0.99-1.61 1.5-2.44 1.33-2.28 2.02-4 2.5-6.56 1.65-0.33 3.3-0.66 5-1 0.33-0.99 0.66-1.98 1-3h3c0.33-0.66 0.66-1.32 1-2 0.66-0.33 1.32-0.66 2-1v3c-0.99 0.495-0.99 0.495-2 1 0.66 0.33 1.32 0.66 2 1 0.33-2.31 0.66-4.62 1-7z" fill="#1D1F21"/>
<path transform="translate(1202,208)" d="m0 0h1v5c1.45-0.278 1.45-0.278 2.94-0.562 1.52-0.217 1.52-0.217 3.06-0.438 0.33 0.33 0.66 0.66 1 1 0.33-0.33 0.66-0.66 1-1 2.33-0.0409 4.67-0.0424 7 0 0.33 1.65 0.66 3.3 1 5h2c0.981 3.05 0.981 4.95 0 8h3v-2c0.639 0.186 1.28 0.371 1.94 0.562 1.02 0.217 1.02 0.217 2.06 0.438 0.33-0.33 0.66-0.66 1-1 1.67-0.0406 3.33-0.0427 5 0-0.33 0.99-0.66 1.98-1 3-10.1 4.72-20.9 7.41-32 7 0.33-1.65 0.66-3.3 1-5h-3c-0.33-2.64-0.66-5.28-1-8 0.99-0.33 1.98-0.66 3-1 0.99 0.66 1.98 1.32 3 2 0.99-0.33 1.98-0.66 3-1-2.31-0.66-4.62-1.32-7-2v-3h2v-7z" fill="#202122"/>
<path transform="translate(381,4)" d="m0 0v17c-0.66 0.33-1.32 0.66-2 1-0.33 0.99-0.66 1.98-1 3h-14v-9c1.98-0.33 3.96-0.66 6-1-0.33-1.32-0.66-2.64-1-4v4c-6.44 0.495-6.44 0.495-13 1v-9h-7v-1c10.8-1.95 21-2.17 32-2z" fill="#202122"/>
<path transform="translate(301,87)" d="m0 0c0.66 0.33 1.32 0.66 2 1v124h-1c-0.0297-1.47-0.0297-1.47-0.0601-2.97-0.0762-3.64-0.165-7.28-0.257-10.9-0.0382-1.57-0.0731-3.15-0.104-4.72-0.0458-2.26-0.104-4.53-0.164-6.79-0.0116-0.701-0.0231-1.4-0.035-2.12-0.113-3.76-0.682-6.19-2.38-9.48-1.43-11.3-1.16-23-1.12-34.4 0.00122-0.818 0.00244-1.64 0.00369-2.48 0.0188-10.8 0.159-21.6 0.559-32.5 0.0392-1.08 0.0783-2.17 0.119-3.28 0.314-7.27 0.314-7.27 1.44-8.4 0.368-2.33 0.702-4.66 1-7z" fill="#212223"/>
<path transform="translate(420,200)" d="m0 0h1c1.01 4.35 1.32 8.68 1.56 13.1 0.0425 0.748 0.0849 1.5 0.129 2.27 0.314 5.87 0.423 11.7 0.309 17.6-3.55 1.18-6.8 1.18-10.5 1.19l-2.05 0.0371c-3.71 0.011-5.28-0.111-8.45-2.22-0.221-2.95-0.281-5.68-0.188-8.62 0.0135-0.802 0.0271-1.6 0.041-2.43 0.0354-1.98 0.0892-3.96 0.146-5.95 0.99 1.49 0.99 1.49 2 3 0.66-1.98 1.32-3.96 2-6h1c0.33 3.3 0.66 6.6 1 10 0.66-5.28 1.32-10.6 2-16 3.25 4.88 2.66 10.2 3 16 0.66-5.28 1.32-10.6 2-16 2.15 3.23 2.2 4.28 2 8h2c0.33-4.62 0.66-9.24 1-14z" fill="#1E2022"/>
<path transform="translate(185,183)" d="m0 0h1c0.852 7.07 1.13 14 1.06 21.1-0.00451 0.956-0.00902 1.91-0.0137 2.9-0.0116 2.33-0.028 4.65-0.0488 6.98 0.978-0.266 1.96-0.531 2.96-0.805 19.2-5.2 19.2-5.2 23-5.2-0.33 3.96-0.66 7.92-1 12h7c-0.33 0.99-0.66 1.98-1 3v-2c-7.92 0.99-7.92 0.99-16 2v-3h-3v2c-4.69 1.12-7.54 0.806-12-1v-2c-1.65-0.33-3.3-0.66-5-1 0.371-0.908 0.743-1.82 1.12-2.75 1.39-4.65 0.247-8.75-0.812-13.4-0.363-3.33 0.353-4.84 1.69-7.87 0.276-1.93 0.484-3.87 0.625-5.81 0.112-1.46 0.112-1.46 0.227-2.96 0.049-0.736 0.098-1.47 0.148-2.23z" fill="#202022"/>
<path transform="translate(463,133)" d="m0 0c2.31 0.66 4.62 1.32 7 2 0.495 3.96 0.495 3.96 1 8-9.23 6.7-9.23 6.7-15 7-0.33-0.99-0.66-1.98-1-3-0.33 0.66-0.66 1.32-1 2-2.32 0.407-4.66 0.744-7 1-0.33 3.63-0.66 7.26-1 11h2c-0.33 0.887-0.66 1.77-1 2.69-0.912 3.02-1.18 5.2-1 8.31-3.22-3.49-3.63-6.61-4.19-11.2-0.159-1.26-0.317-2.53-0.48-3.83-0.11-0.964-0.219-1.93-0.332-2.92h-3v-5c1.32-0.33 2.64-0.66 4-1v-4c6.62-2 6.62-2 10-2 0.33-0.99 0.66-1.98 1-3 2.31-1.06 2.31-1.06 5-2 3.16-1.29 3.16-1.29 5-4z" fill="#1E2022"/>
<path transform="translate(227,30)" d="m0 0h2c3.38 5.18 4 7.75 4 14 1.86 1.98 1.86 1.98 4 3 0.66-0.33 1.32-0.66 2-1 2.88 12.3 1.43 23.7-4 35-1.27 2.04-2.59 4.06-4 6h-1v-10c-1.98 0.495-1.98 0.495-4 1v-4c0.99 0.33 1.98 0.66 3 1 0.66-2.64 1.32-5.28 2-8h2v-2c-0.66-0.33-1.32-0.66-2-1 0.66-2.64 1.32-5.28 2-8-1.32-0.66-2.64-1.32-4-2 0.66-4.29 1.32-8.58 2-13h-2c-0.228-1.99-0.456-3.97-0.684-5.96-0.288-2.24-0.288-2.24-1.32-5.04z" fill="#201F22"/>
<path transform="translate(1221,20)" d="m0 0c2.88-0.125 2.88-0.125 6 0 0.66 0.66 1.32 1.32 2 2-3.46 1.48-3.46 1.48-7 3h7c0.33-0.66 0.66-1.32 1-2 2 0 2 0 4.12 1.75 1.88 2.25 1.88 2.25 1.88 6.25 0.99 0.33 1.98 0.66 3 1 0.495 0.99 0.495 0.99 1 2 0.66 0.248 1.32 0.495 2 0.75 2 1.25 2 1.25 2.75 4.38 0.0825 0.949 0.165 1.9 0.25 2.88-0.99 0.495-0.99 0.495-2 1-1.94-1.11-3.83-2.32-5.69-3.56-10.6-6.81-22.4-10.7-34.3-14.4v-4c2.33-0.0424 4.67-0.0409 7 0 0.33 0.33 0.66 0.66 1 1 1.69 0.0721 3.38 0.0839 5.06 0.0625 0.919-0.00902 1.84-0.018 2.79-0.0273 0.71-0.0116 1.42-0.0232 2.15-0.0352v-2z" fill="#202122"/>
<path transform="translate(818,197)" d="m0 0c3.63 1.26 6.56 2.98 9.71 5.17 6.71 4.66 12.6 7.23 20.6 9.07 1.32 0.373 1.32 0.373 2.67 0.754 0.495 0.99 0.495 0.99 1 2 2.02 1.13 2.02 1.13 4 2-3.78 1.84-5.95 2.16-10 1v3c-2.31 0.33-4.62 0.66-7 1-0.33-0.99-0.66-1.98-1-3h-2v-2h-2v4c-2.31-0.33-4.62-0.66-7-1 0.309-0.866 0.309-0.866 0.625-1.75 0.462-2.77-0.196-3.9-1.62-6.25h2c0.33-0.99 0.66-1.98 1-3-0.99-0.66-1.98-1.32-3-2-0.33-0.99-0.66-1.98-1-3-0.66 0.66-1.32 1.32-2 2h-4c-0.33-2.64-0.66-5.28-1-8z" fill="#211E21"/>
<path transform="translate(200,19)" d="m0 0v2c1.07-0.0413 2.15-0.0825 3.25-0.125 3.41 0.114 4.96 0.338 7.75 2.12 0.33-0.66 0.66-1.32 1-2 1.32 0.99 2.64 1.98 4 3-1.98 0.66-3.96 1.32-6 2 0.639 0.247 1.28 0.495 1.94 0.75 2.06 1.25 2.06 1.25 2.88 3.25 0.188 2 0.188 2-0.812 4h2c0.33-0.99 0.66-1.98 1-3 2 2 2 2 2 5-0.619 0.124-1.24 0.248-1.88 0.375-2.32 0.497-2.32 0.497-4.12 2.62-0.675-0.671-0.675-0.671-1.36-1.36-6.99-6.57-14.9-11-24.6-11.6-0.66-1.98-1.32-3.96-2-6 5.07-0.712 9.88-1.11 15-1z" fill="#202122"/>
<path transform="translate(281,5)" d="m0 0c11.4-0.128 22.6 0.204 34 1v1c-3.63 0.33-7.26 0.66-11 1 0.33 2.31 0.66 4.62 1 7 0.99 0.33 1.98 0.66 3 1v2c-11.4 0.99-11.4 0.99-23 2 0-6.75 0-6.75 2-10 0.66 0.33 1.32 0.66 2 1v2c0.66 0.33 1.32 0.66 2 1v-6c-1.09 0.0206-2.19 0.0412-3.31 0.0625-3.69-0.0625-3.69-0.0625-6.69-1.06v-2z" fill="#221F22"/>
<path transform="translate(1281,88)" d="m0 0c0.99 0.33 1.98 0.66 3 1 0.688 2.06 0.688 2.06 1 4h-2v2h2c0.164 0.94 0.164 0.94 0.332 1.9 0.159 0.817 0.317 1.63 0.48 2.48 0.151 0.812 0.302 1.62 0.457 2.46 0.606 2.52 0.606 2.52 3.73 4.16 0.363 2.17 0.363 2.17 0.312 4.75-0.00387 0.84-0.00773 1.68-0.0117 2.55-0.301 2.7-0.301 2.7-1.26 5.35-1.73 5.59-1.79 11.4-2.16 17.2-0.432 5.69-1.28 10-3.88 15.1h-4c2-10 2-10 2.51-12.2 1.5-6.69 1.79-13.1 1.74-19.9 0.00773-1.02 0.0155-2.05 0.0234-3.1-0.0142-5.54-0.472-10.5-1.83-15.9-0.581-2.53-0.643-4.91-0.57-7.5 0.018-0.847 0.0361-1.69 0.0547-2.57 0.0232-0.617 0.0464-1.23 0.0703-1.87z" fill="#202122"/>
<path transform="translate(293,154)" d="m0 0h5c1.19 5.02 1.33 10.1 1.52 15.2 0.171 4.04 0.171 4.04 1.51 7.8 1.54 3.14 1.23 6.38 1.16 9.8-0.0079 0.743-0.0158 1.49-0.0239 2.25-0.237 15.7-0.237 15.7-1.16 21.9-0.99 0.495-0.99 0.495-2 1-0.859-4.44-1.12-8.63-1.1-13.1 0.00141-0.657 0.00283-1.31 0.00429-1.99 0.00555-2.08 0.0181-4.16 0.0309-6.23 0.00502-1.42 0.00958-2.84 0.0137-4.25 0.011-3.46 0.0282-6.91 0.0488-10.4-1.65 0.66-3.3 1.32-5 2v-2c-0.66-0.33-1.32-0.66-2-1 0.66-1.32 1.32-2.64 2-4h-3c0.0619 0.949 0.124 1.9 0.188 2.88-0.0619 1.03-0.124 2.06-0.188 3.12-0.99 0.66-1.98 1.32-3 2 0.33-4.29 0.66-8.58 1-13h5c0.33 2.64 0.66 5.28 1 8h3v-3h-2v-14h-2v-3z" fill="#1E2022"/>
<path transform="translate(318,5)" d="m0 0c3.37-0.0292 6.75-0.0469 10.1-0.0625 1.43-0.0126 1.43-0.0126 2.88-0.0254 4.78-0.0166 9.29 0.0825 14 1.09 0.0269 1.81 0.0463 3.62 0.0625 5.44 0.0116 1.01 0.0232 2.02 0.0352 3.06-0.0977 2.5-0.0977 2.5-1.1 3.5-2.29 0.0996-4.58 0.13-6.88 0.125-1.26 0.00258-2.51 0.00516-3.8 0.00781-3.32-0.133-3.32-0.133-6.32-1.13v-11h-3v2c-1.98-0.66-3.96-1.32-6-2v-1z" fill="#231F22"/>
<path transform="translate(137,5)" d="m0 0c5.75-0.125 5.75-0.125 8 1v53c-1.98 0.495-1.98 0.495-4 1-1.65-3.31-1.1-6.99-1.06-10.6 0.00451-0.802 0.00902-1.6 0.0137-2.43 0.0118-1.98 0.0297-3.96 0.0488-5.95h1c0.33 1.65 0.66 3.3 1 5 0.0269-1.81 0.0463-3.62 0.0625-5.44 0.0116-1.01 0.0232-2.02 0.0352-3.06 0.188-2.44 0.188-2.44-1.1-3.5-0.24-2.55-0.424-5.07-0.562-7.62-0.0432-0.7-0.0864-1.4-0.131-2.12-0.259-4.43-0.347-8.82-0.307-13.3h-4c0.33-1.98 0.66-3.96 1-6z" fill="#202122"/>
<path transform="translate(859,7)" d="m0 0c-0.33 0.66-0.66 1.32-1 2h6c0.33-0.66 0.66-1.32 1-2 1.32 0.33 2.64 0.66 4 1v7c1.32 0.33 2.64 0.66 4 1v1h-11c-0.33 2.31-0.66 4.62-1 7-0.33-0.66-0.66-1.32-1-2h-3v-2h3v-3h-3c-0.33 2.31-0.66 4.62-1 7-0.33-0.66-0.66-1.32-1-2-0.99-0.33-1.98-0.66-3-1 0.99-0.33 1.98-0.66 3-1-3.05-0.158-3.05-0.158-6 1-0.66 0.66-1.32 1.32-2 2 1.03-9.97 1.03-9.97 3-14 5.04-3.32 5.04-3.32 9-2z" fill="#221E21"/>
<path transform="translate(165,6)" d="m0 0c0.33 0.99 0.66 1.98 1 3h2v3h-2v2h2c0.33 1.32 0.66 2.64 1 4 2.97 0.495 2.97 0.495 6 1-0.33 0.66-0.66 1.32-1 2h-5v3h4c0.33-0.66 0.66-1.32 1-2 0.66 1.32 1.32 2.64 2 4h-2v2h-2c-0.33-0.66-0.66-1.32-1-2h-3c0.33 1.98 0.66 3.96 1 6 0.66-0.66 1.32-1.32 2-2v2h3v3c-0.66 0.33-1.32 0.66-2 1v4h-2c0.0348 0.699 0.0696 1.4 0.105 2.12 0.0271 0.91 0.0541 1.82 0.082 2.76 0.0348 0.905 0.0696 1.81 0.105 2.74l-0.293 2.38c-0.99 0.66-1.98 1.32-3 2-0.366 3.36-0.366 3.36-0.188 7.12 0.0271 1.28 0.0541 2.56 0.082 3.88 0.0348 0.987 0.0696 1.97 0.105 2.99-2-2-2-2-2.24-4.44 0.00444-1.03 0.00888-2.05 0.0135-3.11 1.51e-4 -1.16 3.02e-4 -2.32 4.58e-4 -3.52 0.0103-1.26 0.0206-2.52 0.0313-3.81 0.00283-1.28 0.00566-2.57 0.00858-3.89 0.00764-3.42 0.0273-6.83 0.0494-10.2 0.0205-3.49 0.0296-6.97 0.0397-10.5 0.0215-6.84 0.0556-13.7 0.0977-20.5z" fill="#212122"/>
<path transform="translate(376,213)" d="m0 0h5v21h-50c2-2 2-2 5.91-2.2 1.57 0.0133 3.14 0.0372 4.71 0.0703 0.802 0.00902 1.6 0.018 2.43 0.0273 1.98 0.0236 3.96 0.0595 5.95 0.0977v-3c5.94-0.495 5.94-0.495 12-1v-2h-7v-2c4.45-0.495 4.45-0.495 9-1 0.495 4.46 0.495 4.46 1 9 0.66-0.33 1.32-0.66 2-1 1.54-0.0695 3.08-0.0845 4.62-0.0625 1.23 0.0135 1.23 0.0135 2.48 0.0273 0.626 0.0116 1.25 0.0232 1.9 0.0352-0.495-1.49-0.495-1.49-1-3 0.967-0.306 0.967-0.306 1.95-0.617 2.36-1.25 2.36-1.25 2.66-4.2 0.0464-1.09 0.0928-2.18 0.141-3.3 0.0851-1.64 0.0851-1.64 0.172-3.32 0.0387-1.26 0.0387-1.26 0.0781-2.55-1.32-0.33-2.64-0.66-4-1z" fill="#1E2022"/>
<path transform="translate(1144 3.89)" d="m0 0c1.19 0.00786 1.19 0.00786 2.4 0.0159 0.769 0.0025 1.54 5e-3 2.33 0.00757 0.983 0.0091 1.97 0.0182 2.98 0.0276 4.67 0.0309 4.67 0.0309 9.44 0.0625v21h-1c-0.495-6.43-0.495-6.43-1-13h-4c-0.33 1.32-0.66 2.64-1 4v-4c-1.65-0.33-3.3-0.66-5-1-0.33 0.99-0.66 1.98-1 3h-2v-4c-0.99 0.33-1.98 0.66-3 1 0.165 1.22 0.33 2.43 0.5 3.69 0.395 3.13 0.599 6.15 0.5 9.31h-2c-1.25-3.74-1.15-7.23-1.12-11.1-0.00387-0.741-0.00773-1.48-0.0117-2.25 0.012-6.56 0.012-6.56 2.99-6.74z" fill="#1F2022"/>
<path transform="translate(295,91)" d="m0 0h2c3.6 17 2.28 34.8 1 52h-4c-1.07-3.46-1.1-6.64-1.06-10.2 0.0135-1.62 0.0135-1.62 0.0273-3.27 0.0116-0.82 0.0232-1.64 0.0352-2.48h2c0.0271-1.77 0.0464-3.54 0.0625-5.31 0.0116-0.986 0.0232-1.97 0.0352-2.99 0.0256-2.8 0.0256-2.8-1.1-5.7 0.0879-2.23 0.243-4.46 0.438-6.69 0.415-5.14 0.665-10.2 0.562-15.3z" fill="#1E1F22"/>
<path transform="translate(1301,96)" d="m0 0h2c3.21 18.1 3.07 36.2-2 54h-1c0.0116-1.25 0.0232-2.5 0.0352-3.79 0.0648-10.8-0.111-21.5-0.855-32.2-0.362-6.3 0.293-11.9 1.82-18z" fill="#1D1E1F"/>
<path transform="translate(166,211)" d="m0 0c0.99 0.33 1.98 0.66 3 1v15h4c-0.33-4.62-0.66-9.24-1-14 0.99 0.33 1.98 0.66 3 1 0.121 0.641 0.242 1.28 0.367 1.94 0.99 5.11 2.12 10.1 3.63 15.1-5.04 2.47-8.27 3.17-14 3-0.029-3.27-0.0468-6.54-0.0625-9.81-0.00838-0.929-0.0168-1.86-0.0254-2.81-0.00322-0.893-0.00645-1.79-0.00977-2.71-0.00524-0.822-0.0105-1.64-0.0159-2.49 0.114-2.18 0.114-2.18 1.11-5.18z" fill="#212122"/>
<path transform="translate(281,7)" d="m0 0c3.3 0.33 6.6 0.66 10 1v6c-0.99-0.33-1.98-0.66-3-1-0.33-0.99-0.66-1.98-1-3-1.01 3.34-1.12 6.37-1.1 9.86 0.00322 1.12 0.00645 2.23 0.00977 3.38 0.00838 1.16 0.0168 2.32 0.0254 3.51 0.00451 1.17 0.00902 2.35 0.0137 3.56 0.0118 2.9 0.0282 5.79 0.0488 8.69h-2v6c-1.49 0.495-1.49 0.495-3 1v-39z" fill="#212122"/>
<path transform="translate(1326,131)" d="m0 0h3c0.171 4.25 0.336 8.5 0.5 12.8 0.0477 1.19 0.0954 2.37 0.145 3.6 0.83 21.7 0.83 21.7-0.645 24.7h-2c-0.33 4.29-0.66 8.58-1 13h-1c-0.025-5.44-0.043-10.9-0.0549-16.3-0.00498-1.84-0.0118-3.69-0.0205-5.53-0.0497-10.8 0.0773-21.4 1.08-32.1z" fill="#1C1D1E"/>
<path transform="translate(182,24)" d="m0 0c1.32 0.66 2.64 1.32 4 2v54c-0.66-0.33-1.32-0.66-2-1 0.0116-0.699 0.0232-1.4 0.0352-2.12 0.00902-0.91 0.018-1.82 0.0273-2.76 0.0116-0.905 0.0232-1.81 0.0352-2.74 0.0648-2.4 0.0648-2.4-1.1-4.38-0.0707-2.04-0.0842-4.08-0.0625-6.12 0.00902-1.1 0.018-2.19 0.0273-3.32 0.0116-0.843 0.0232-1.69 0.0352-2.55h-2v-2c-0.66-0.33-1.32-0.66-2-1h3c-0.0408-0.686-0.0815-1.37-0.124-2.08-0.178-3.1-0.34-6.2-0.501-9.3-0.0645-1.08-0.129-2.16-0.195-3.27-0.0516-1.03-0.103-2.06-0.156-3.12-0.0524-0.953-0.105-1.91-0.159-2.89 0.135-2.34 0.135-2.34 2.14-4.34-0.99-0.66-1.98-1.32-3-2 0.66-0.33 1.32-0.66 2-1z" fill="#1E2022"/>
<path transform="translate(415,145)" d="m0 0h1c0.33 1.65 0.66 3.3 1 5 0.66-0.33 1.32-0.66 2-1 0.99 0.33 1.98 0.66 3 1v2c1.32 0.33 2.64 0.66 4 1-0.33 0.99-0.66 1.98-1 3 0.33 0.33 0.66 0.66 1 1-0.99 1.49-0.99 1.49-2 3h-2v17h-2v-18c-0.99 0.33-1.98 0.66-3 1-1.22 2.5-1.22 2.5-2 5-2-1-2-1-2.62-2.64-0.492-3.06-0.472-6.01-0.441-9.11 0.00902-1.17 0.018-2.34 0.0273-3.55 0.0116-0.892 0.0232-1.78 0.0352-2.7h2c0.33-0.66 0.66-1.32 1-2z" fill="#1E2022"/>
<path transform="translate(977,93)" d="m0 0h1v53h-2v4h2v21c-2-1-2-1-3-4 0.113-2.56 0.275-5.08 0.5-7.62 0.215-2.46 0.382-4.9 0.5-7.38-0.33-0.33-0.66-0.66-1-1-0.105-2.43-0.14-4.82-0.125-7.25 0.0029-1.13 0.0029-1.13 0.00586-2.28 0.0506-6.89 0.391-13.8 0.763-20.6 0.339-6.54 0.433-13.1 0.319-19.6-0.0394-3.05 0.0614-5.31 1.04-8.24z" fill="#231F22"/>
<path transform="translate(1247,196)" d="m0 0c0.688 1.75 0.688 1.75 1 4-1.12 2.19-1.12 2.19-3 4-2.69 0.75-2.69 0.75-5 1 0.99 0.33 1.98 0.66 3 1 0.33-0.66 0.66-1.32 1-2 0.33 0.66 0.66 1.32 1 2 0.99 0.33 1.98 0.66 3 1v4c-1.08-0.0928-1.08-0.0928-2.19-0.188-4.27 0.285-6.84 2.22-9.81 5.19-0.33-1.65-0.66-3.3-1-5h-2c-0.33-0.99-0.66-1.98-1-3v3h-3c-0.33-1.32-0.66-2.64-1-4 2.3-1.07 4.64-2.06 7-3 0.66 0.33 1.32 0.66 2 1 0.227-0.619 0.454-1.24 0.688-1.88 1.71-2.77 3.31-3.03 6.31-4.12 1.77-1.52 1.77-1.52 3-3z" fill="#202122"/>
<path transform="translate(818,202)" d="m0 0c0.33 0.99 0.66 1.98 1 3h3c0.33-0.66 0.66-1.32 1-2h3c0.33 0.99 0.66 1.98 1 3 1.5 1.67 1.5 1.67 3 3h-2c-0.33 1.98-0.66 3.96-1 6h-3v3h-2c0.33 1.98 0.66 3.96 1 6-3 0-3 0-5-1v-21z" fill="#1E2022"/>
<path transform="translate(448,171)" d="m0 0c0.33 0.66 0.66 1.32 1 2h3c0.33 0.33 0.66 0.66 1 1 0.33-0.66 0.66-1.32 1-2 1.94 0.562 1.94 0.562 4 2 0.75 3.62 0.75 3.62 1 7h3v2h2c0.103 0.639 0.206 1.28 0.312 1.94 0.227 0.681 0.454 1.36 0.688 2.06 0.99 0.33 1.98 0.66 3 1-0.33 0.66-0.66 1.32-1 2-2-1.38-2-1.38-4-3v-2h-3c-0.33 0.99-0.66 1.98-1 3-0.33-0.99-0.66-1.98-1-3-0.99-0.33-1.98-0.66-3-1-0.33 0.66-0.66 1.32-1 2h2v3c-1.65-0.33-3.3-0.66-5-1-0.124-0.536-0.248-1.07-0.375-1.62-0.488-1.85-1.07-3.68-1.69-5.5-1.14-3.5-0.938-6.18-0.938-9.88z" fill="#1E2022"/>
<path transform="translate(185 4.75)" d="m0 0c7.89 0.0566 15.7 1.46 22.7 5.25v1c-0.724-0.0116-1.45-0.0232-2.2-0.0352-5.09-0.0475-9.78 0.162-14.8 1.04-4.23 0.191-7.95 0.348-12-1-0.0427-1.67-0.0406-3.33 0-5 1.73-1.73 3.96-1.21 6.31-1.25z" fill="#202122"/>
<path transform="translate(906,155)" d="m0 0h3c5.25 13.2 7.55 27.9 4 42-2.28-3.42-2.22-4.68-2.12-8.69 0.018-0.994 0.0361-1.99 0.0547-3.01 0.0232-0.759 0.0464-1.52 0.0703-2.3h-3v-2c1.32-0.33 2.64-0.66 4-1-0.491-0.843-0.491-0.843-0.992-1.7-1.13-2.57-1.21-4.27-1.13-7.05 0.018-0.799 0.0361-1.6 0.0547-2.42 0.0348-0.905 0.0348-0.905 0.0703-1.83-1.32-0.66-2.64-1.32-4-2v-10z" fill="#202021"/>
<path transform="translate(363 4.94)" d="m0 0c1.18 0.00677 1.18 0.00677 2.39 0.0137 1.93 0.0117 3.87 0.0296 5.8 0.0488-0.33 0.907-0.66 1.82-1 2.75-1.2 3.32-1.2 3.32-1 7.25-6.44 0.495-6.44 0.495-13 1v-9h-7v-1c4.62-1.18 9.08-1.11 13.8-1.06z" fill="#221F22"/>
<path transform="translate(1062,104)" d="m0 0h1v54h-1c-0.0606-0.782-0.121-1.56-0.184-2.37-0.0838-1.01-0.168-2.02-0.254-3.07-0.0812-1.01-0.162-2.02-0.246-3.06-0.0485-2.44-0.0485-2.44-1.32-3.5-0.114-2.85-0.164-5.67-0.168-8.52-0.00333-0.857-0.00666-1.71-0.0101-2.6-0.00507-1.82-0.00741-3.63-0.00725-5.45-0.00218-2.78-0.0203-5.57-0.0393-8.35-0.00293-1.76-0.00492-3.53-0.00586-5.29-0.0108-1.25-0.0108-1.25-0.0218-2.53 0.0234-5.92 0.0234-5.92 2.25-9.26z" fill="#212223"/>
<path transform="translate(903,143)" d="m0 0c3.06 3.75 5 7.08 5 12h-2c-1.21 2.33-2.17 4.5-3 7-2.15-3.23-2.2-4.28-2-8-1.76 3.09-2 4.23-2 8-1.5 2.25-1.5 2.25-3 4-0.199-1.03-0.199-1.03-0.402-2.08-0.177-0.901-0.353-1.8-0.535-2.73-0.174-0.893-0.348-1.79-0.527-2.71-0.513-2.59-0.513-2.59-1.54-5.48h3v-8c1.76 3.09 2 4.23 2 8h3v-9c0.66-0.33 1.32-0.66 2-1z" fill="#212122"/>
<path transform="translate(353,75)" d="m0 0c0.99 0.33 1.98 0.66 3 1v3h2v-4c0.99 0.33 1.98 0.66 3 1 0.195 1.62 0.381 3.25 0.562 4.88 0.104 0.905 0.209 1.81 0.316 2.74 0.121 2.38 0.121 2.38-0.879 4.38 0.66 0.33 1.32 0.66 2 1h-16c0.99-0.66 1.98-1.32 3-2 0.577-1.96 0.577-1.96 0.688-4.12 0.103-1.28 0.206-2.56 0.312-3.88h2v-4z" fill="#1E1F22"/>
<path transform="translate(1043,53)" d="m0 0c0.99 0.33 1.98 0.66 3 1v2h-2c0.118 4.25 0.242 8.51 0.372 12.8 0.0434 1.45 0.0851 2.9 0.125 4.34 0.0576 2.08 0.121 4.16 0.186 6.23 0.0367 1.25 0.0733 2.5 0.111 3.79-0.117 2.76-0.117 2.76 1.21 3.87 0.0998 2.51 0.139 4.99 0.125 7.5 0.00387 0.703 0.00773 1.41 0.0117 2.13-0.0101 5.24-0.0101 5.24-1.14 6.37-0.0989 2.16-0.13 4.33-0.125 6.5-0.00258 1.19-0.00516 2.37-0.00781 3.59-0.199 2.8-0.199 2.8 1.13 3.91 0.0409 2.33 0.0424 4.67 0 7h-2v9h-1v-80z" fill="#212223"/>
<path transform="translate(1269,60)" d="m0 0c1.44 2.12 1.44 2.12 3 5 0.681 1.01 1.36 2.02 2.06 3.06 3.94 5.97 3.94 5.97 3.94 10.9 0.66 0.33 1.32 0.66 2 1v4c0.66 0.33 1.32 0.66 2 1-0.66 0.66-1.32 1.32-2 2-0.33 0.66-0.66 1.32-1 2-0.277-0.539-0.553-1.08-0.839-1.63-1.28-2.48-2.56-4.95-3.85-7.43-0.653-1.27-0.653-1.27-1.32-2.57-2.07-3.97-4.17-7.75-6.83-11.4-2.17-3-2.17-3-2.17-5 2-1 2-1 5-1z" fill="#202122"/>
<path transform="translate(422,27)" d="m0 0h1v95h-1c-0.0103-0.893-0.0206-1.79-0.0312-2.71-0.098-8.42-0.2-16.8-0.308-25.2-0.0552-4.33-0.109-8.65-0.158-13-0.0477-4.18-0.1-8.35-0.156-12.5-0.0204-1.59-0.0391-3.19-0.0561-4.78-0.0241-2.23-0.0542-4.46-0.0856-6.69-0.0155-1.27-0.0311-2.54-0.0471-3.85-0.129-2.63-0.446-4.71-1.16-7.21-0.118-2.12-0.175-4.25-0.188-6.38-0.0142-1.1-0.0284-2.2-0.043-3.34 0.239-3.4 1.02-6.11 2.23-9.29z" fill="#212223"/>
<path transform="translate(1195 228)" d="m0 0c0.697 0.00451 1.39 0.00902 2.11 0.0137 1.71 0.0117 3.42 0.0297 5.14 0.0488v6c-6.6 0.33-13.2 0.66-20 1 0.33-1.98 0.66-3.96 1-6 3.87-1.27 7.73-1.11 11.8-1.06z" fill="#1D1F21"/>
<path transform="translate(1048,65)" d="m0 0h10v10h-4c-0.33 0.99-0.66 1.98-1 3v-3h-4c-0.33 0.99-0.66 1.98-1 3v-13z" fill="#231F22"/>
<path transform="translate(872 3.94)" d="m0 0c1.25 0.00902 2.51 0.018 3.8 0.0273 0.953 0.0116 1.91 0.0232 2.89 0.0352-3.44 2.29-4.99 2.18-9 2 1.32 0.33 2.64 0.66 4 1 0.103 0.619 0.206 1.24 0.312 1.88 0.563 2.49 0.563 2.49 3.69 4.12h-3c0.33 0.99 0.66 1.98 1 3-2.31-0.33-4.62-0.66-7-1-0.33-2.31-0.66-4.62-1-7-0.99-0.33-1.98-0.66-3-1-0.33 0.99-0.66 1.98-1 3-2.97-0.495-2.97-0.495-6-1 0.688-1.94 0.688-1.94 2-4 4.08-1.2 8.09-1.1 12.3-1.06z" fill="#1E1F22"/>
<path transform="translate(1144,198)" d="m0 0c0.99 0.66 1.98 1.32 3 2-0.33 2.97-0.66 5.94-1 9h2c-0.25 2.38-0.25 2.38-1 5-2.06 1.31-2.06 1.31-4 2-3-2-3-2-3.69-4.12-0.103-0.619-0.206-1.24-0.312-1.88v2c-0.99-0.33-1.98-0.66-3-1v-2h4c0.66-2.97 1.32-5.94 2-9h2v-2z" fill="#201F22"/>
<path transform="translate(895,211)" d="m0 0h3v2h2v-2c1.32 0.33 2.64 0.66 4 1-0.241 3.26-1.52 4.73-3.88 6.81-1.03 0.722-2.06 1.44-3.12 2.19-0.99-0.33-1.98-0.66-3-1v-4c-0.454 0.495-0.908 0.99-1.38 1.5-1.62 1.5-1.62 1.5-3.62 1.5v-2c-0.99-0.33-1.98-0.66-3-1 2.97-1.65 5.66-2.44 9-3v-2z" fill="#1E1F21"/>
<path transform="translate(221,39)" d="m0 0c1.76 5.07 2.63 10.7 2 16-2.02 2.2-2.02 2.2-4 4-0.193-0.941-0.387-1.88-0.586-2.85-0.26-1.25-0.521-2.49-0.789-3.77-0.255-1.23-0.51-2.46-0.773-3.73-0.772-3.31-1.72-6.45-2.85-9.65 4.75-1.12 4.75-1.12 7 0z" fill="#202122"/>
<path transform="translate(447,136)" d="m0 0c-0.875 4.88-0.875 4.88-2 6-2.33 0.0409-4.67 0.0424-7 0v2c-1.61-0.0619-1.61-0.0619-3.25-0.125-3.57 0.119-4.74 0.569-7.75 2.12-2.25-0.375-2.25-0.375-4-1 0.33-1.32 0.66-2.64 1-4 3.63 0.33 7.26 0.66 11 1 0.33-0.99 0.66-1.98 1-3 1.74-0.949 1.74-0.949 3.88-1.69 0.699-0.251 1.4-0.503 2.12-0.762 2.01-0.551 2.01-0.551 5.01-0.551z" fill="#202122"/>
<path transform="translate(237,191)" d="m0 0h1c0.626 8.14 0.626 8.14-1.88 11.6-2.12 1.44-2.12 1.44-4.12 1.44v-2c-0.66-0.33-1.32-0.66-2-1-0.33 0.99-0.66 1.98-1 3h-9c4.62-4.88 4.62-4.88 8-6v-2h2v3c0.99-0.33 1.98-0.66 3-1h2c0.66-2.31 1.32-4.62 2-7z" fill="#212223"/>
<path transform="translate(376,213)" d="m0 0h5v21h-16c0.33-0.66 0.66-1.32 1-2 2.29-0.414 2.29-0.414 5.06-0.625 0.919-0.0748 1.84-0.15 2.79-0.227 1.07-0.0735 1.07-0.0735 2.15-0.148-0.33-0.99-0.66-1.98-1-3 0.967-0.306 0.967-0.306 1.95-0.617 2.36-1.25 2.36-1.25 2.66-4.2 0.0696-1.64 0.0696-1.64 0.141-3.3 0.0567-1.1 0.113-2.19 0.172-3.32 0.0258-0.843 0.0516-1.69 0.0781-2.55-1.32-0.33-2.64-0.66-4-1z" fill="#1C1E1F"/>
<path transform="translate(921,5)" d="m0 0h23v2h-9v2c-4.7 1.05-9.2 1-14 1v-5z" fill="#221F22"/>
<path transform="translate(92,214)" d="m0 0 1 2c0.66-0.66 1.32-1.32 2-2h5v13c-2 0-2 0-3.5-1.38-0.495-0.536-0.99-1.07-1.5-1.62-0.66-0.66-1.32-1.32-2-2 0.33-0.33 0.66-0.66 1-1-0.99-0.66-1.98-1.32-3-2 0.33-1.65 0.66-3.3 1-5z" fill="#212122"/>
<path transform="translate(237,116)" d="m0 0c2.5 1.38 2.5 1.38 5 3v2h5v2c0.99 0.33 1.98 0.66 3 1h-7v2h4v2c0.99 0.33 1.98 0.66 3 1h-12v-3h2c0.33-0.66 0.66-1.32 1-2h-3c-0.33-2.64-0.66-5.28-1-8z" fill="#221F22"/>
<path transform="translate(865 16)" d="m0 0c10.5 0.681 10.5 0.681 14.5 5.02h-5c-0.33 0.99-0.66 1.98-1 3-2.97-0.495-2.97-0.495-6-1v-3h-5c-0.33 0.66-0.66 1.32-1 2-0.0427-1.67-0.0406-3.33 0-5 1-1 1-1 3.55-1.02z" fill="#1E2022"/>
<path transform="translate(1144,165)" d="m0 0h1v13h2v3h-2v5c-2.59-1.64-3.63-2.32-5-5-0.15-4.73 0.36-9.32 1-14 0.66 0.33 1.32 0.66 2 1 0.33-0.99 0.66-1.98 1-3z" fill="#1E2022"/>
<path transform="translate(233,65)" d="m0 0c0.99 0.33 1.98 0.66 3 1-0.33 3.96-0.66 7.92-1 12h-4v6c0.66 0.33 1.32 0.66 2 1-0.99 0.66-1.98 1.32-3 2v-10c-1.32 0.33-2.64 0.66-4 1v-4c0.99 0.33 1.98 0.66 3 1 0.66-2.64 1.32-5.28 2-8h2v-2z" fill="#1E2022"/>
<path transform="translate(193,19)" d="m0 0h7v2c1.07-0.0413 2.15-0.0825 3.25-0.125 3.41 0.114 4.96 0.338 7.75 2.12 0.33-0.66 0.66-1.32 1-2 1.32 0.99 2.64 1.98 4 3-2.91 1.46-5.7 1.47-8.94 1.75-1.25 0.119-2.49 0.237-3.78 0.359-3.29-0.109-3.29-0.109-5.23-1.41-1.06-1.7-1.06-1.7-1.06-4.7-1.32-0.33-2.64-0.66-4-1z" fill="#1E2022"/>
<path transform="translate(21,4)" d="m0 0c-0.33 3.96-0.66 7.92-1 12-0.33-0.66-0.66-1.32-1-2-1.45 0.278-1.45 0.278-2.94 0.562-1.01 0.144-2.02 0.289-3.06 0.438-1-1-1-1-1.31-3.25 0.703-6.18 3.37-7.75 9.31-7.75z" fill="#1F2021"/>
<path transform="translate(373,214)" d="m0 0h7v12h-2c-0.66-0.99-1.32-1.98-2-3-2.55-1.2-2.55-1.2-5-2 0.66-2.31 1.32-4.62 2-7z" fill="#212122"/>
<path transform="translate(301,33)" d="m0 0c2 2 2 2 2.23 4.52-0.0105 1.04-0.0209 2.07-0.0317 3.14-0.00645 1.12-0.0129 2.24-0.0195 3.4-0.0168 1.18-0.0335 2.35-0.0508 3.56-0.00902 1.18-0.018 2.37-0.0273 3.59-0.0236 2.93-0.0566 5.86-0.0977 8.79h-1c-0.66-4.29-1.32-8.58-2-13h-1v-12h2v-2z" fill="#212223"/>
<path transform="translate(1336,53)" d="m0 0h3c2.69 5.01 2.3 10.2 2.25 15.7 0.00773 0.962 0.0155 1.92 0.0234 2.92-0.00258 0.918-0.00516 1.84-0.00781 2.78-0.00226 0.837-0.00451 1.67-0.00684 2.54-0.259 2.08-0.259 2.08-2.26 4.08-0.049-1.18-0.098-2.37-0.148-3.59-0.381-8.32-0.885-16.3-2.85-24.4z" fill="#202122"/>
<path transform="translate(1183,4)" d="m0 0h12c-0.99 0.495-0.99 0.495-2 1v4c-0.949-0.0412-1.9-0.0825-2.88-0.125-3.23-0.225-3.23-0.225-5.12 2.12-0.167 3.08-0.167 3.08 0 6-0.66-0.33-1.32-0.66-2-1v-12z" fill="#1E1F22"/>
<path transform="translate(281,79)" d="m0 0h3v3h-2c0.165 0.701 0.33 1.4 0.5 2.12 0.523 3.01 0.5 5.83 0.5 8.88 0.33 0.33 0.66 0.66 1 1 0.0732 2.7 0.0924 5.37 0.0625 8.06-0.00451 0.759-0.00902 1.52-0.0137 2.3-0.0118 1.88-0.0298 3.76-0.0488 5.64-0.33-1.32-0.66-2.64-1-4h-2v-27z" fill="#212223"/>
<path transform="translate(1183,136)" d="m0 0c0.33 1.32 0.66 2.64 1 4h3v25h-1c-0.592-5.35-1.14-10.6-1-16-0.99 0.495-0.99 0.495-2 1v-14z" fill="#221F22"/>
<path transform="translate(290,87)" d="m0 0 4 1c-0.165 1.01-0.33 2.02-0.5 3.06-0.47 3.7-0.576 7.21-0.5 10.9h-3c-0.33 0.66-0.66 1.32-1 2-1.26-2.52-1.1-4.31-1.06-7.12 0.00902-0.91 0.018-1.82 0.0273-2.76 0.0116-0.699 0.0232-1.4 0.0352-2.12 0.66-0.33 1.32-0.66 2-1v-4z" fill="#1E1F22"/>
<path transform="translate(1326,88)" d="m0 0h2c1.12 3.77 1.81 7.39 0 11-0.156 2.41-0.258 4.79-0.316 7.2-0.0208 0.707-0.0416 1.41-0.063 2.14-0.0654 2.26-0.124 4.52-0.183 6.79-0.0432 1.53-0.0868 3.07-0.131 4.6-0.107 3.76-0.208 7.52-0.307 11.3h-1v-43z" fill="#212223"/>
<path transform="translate(1189,140)" d="m0 0c0.99 0.33 1.98 0.66 3 1v24h-1c-0.592-5.35-1.14-10.6-1-16h-2c-0.0977-6.15-0.0977-6.15 0-8 0.33-0.33 0.66-0.66 1-1z" fill="#221F22"/>
<path transform="translate(838,20)" d="m0 0c0.66 0.33 1.32 0.66 2 1v3h2c0.33-0.66 0.66-1.32 1-2 1.25 2.49 0.777 3.41 0 6h-3c-0.66 0.66-1.32 1.32-2 2-0.33-0.66-0.66-1.32-1-2-2.48 1.48-2.48 1.48-5 3 1.26-4.51 2.9-7.49 6-11z" fill="#221F22"/>
<path transform="translate(892,19)" d="m0 0c1.32 0.66 2.64 1.32 4 2v8c-0.99 0.495-0.99 0.495-2 1 0.66 0.66 1.32 1.32 2 2-1.25 1.56-1.25 1.56-3 3-2.12-0.188-2.12-0.188-4-1-0.33-0.66-0.66-1.32-1-2 0.681-0.619 0.681-0.619 1.38-1.25 2.46-2.65 3.49-5.34 4.62-8.75h-2v-3z" fill="#1E2022"/>
<path transform="translate(1182,58)" d="m0 0c4 4 4 4 4.39 6.14-0.13 1.95-0.26 3.91-0.391 5.86-0.99 0.33-1.98 0.66-3 1v15h-1v-28z" fill="#202122"/>
<path transform="translate(905,18)" d="m0 0c0.75 1.69 0.75 1.69 1 4-2.19 3.41-4.21 5.51-8 7-1.03-3.75-1.26-6.23 0-10 4.75-1 4.75-1 7-1z" fill="#1C1E20"/>
<path transform="translate(1275,166)" d="m0 0c-0.186 0.619-0.371 1.24-0.562 1.88-0.674 2.17-0.674 2.17 0.562 4.12-0.33 0.66-0.66 1.32-1 2h-2v2h-4c-0.33-1.65-0.66-3.3-1-5 5.75-5 5.75-5 8-5z" fill="#212022"/>
<path transform="translate(1337,165)" d="m0 0h2c2.3 6.57 3.34 12 3 19h-2c-3.44-12.5-3.44-12.5-3-19z" fill="#212223"/>
<path transform="translate(204,86)" d="m0 0v3c-0.99 0.495-0.99 0.495-2 1 0.99 0.66 1.98 1.32 3 2l-5.96 0.586c-2.34 0.341-2.34 0.341-5.04 2.41v-2h-7v-2c0.835-0.0387 0.835-0.0387 1.69-0.0781 6-0.446 10.1-1.97 15.3-4.92z" fill="#212223"/>
<path transform="translate(219,89)" d="m0 0 4 1v8h3v4h-4c-0.33-1.65-0.66-3.3-1-5h-2v-8z" fill="#1E2022"/>
<path transform="translate(206,225)" d="m0 0h17c-4.38 3.28-4.91 3.2-10 3-2.01 0.297-4.01 0.621-6 1-0.33-1.32-0.66-2.64-1-4z" fill="#202122"/>
<path transform="translate(1021,4)" d="m0 0v4c-0.99 0.33-1.98 0.66-3 1 0.99 1.48 0.99 1.48 2 3v4h-2v-4c-0.99-0.33-1.98-0.66-3-1-2-3-2-3-2-6 2.93-0.976 4.96-1.08 8-1z" fill="#1E1B1E"/>
<path transform="translate(281,209)" d="m0 0h1c0.33 4.29 0.66 8.58 1 13 0.66-0.99 1.32-1.98 2-3v6h-3v2h3v3h-3c-0.33 1.32-0.66 2.64-1 4v-25z" fill="#212223"/>
<path transform="translate(403,198)" d="m0 0h1c1.52 8.15 1.9 16.9 0 25h-1c-0.805-8.49-1.12-16.5 0-25z" fill="#212122"/>
<path transform="translate(912,176)" d="m0 0h1c0.196 2.56 0.382 5.12 0.562 7.69 0.0561 0.721 0.112 1.44 0.17 2.19 0.267 3.9 0.276 7.34-0.732 11.1-2.28-3.42-2.22-4.68-2.12-8.69 0.018-0.994 0.0361-1.99 0.0547-3.01 0.0232-0.759 0.0464-1.52 0.0703-2.3h-3v-2c1.32-0.33 2.64-0.66 4-1v-4z" fill="#1E1F22"/>
<path transform="translate(1021,5)" d="m0 0h1v19h-2c-0.0735-1.21-0.0735-1.21-0.148-2.45-0.112-1.6-0.112-1.6-0.227-3.24-0.0696-1.06-0.139-2.11-0.211-3.2-0.402-3.02-1.15-5.35-2.41-8.11 1.32 0.33 2.64 0.66 4 1v-3z" fill="#212122"/>
<path transform="translate(967,186)" d="m0 0h2c1.28 2.56 1.17 4.45 1.19 7.31 0.0142 0.945 0.0284 1.89 0.043 2.86-0.242 2.97-0.99 5.13-2.23 7.82h-1v-18z" fill="#231F22"/>
<path transform="translate(1196,136)" d="m0 0h2v24h-1c-1.94-5.58-2.13-10.1-1.62-15.9 0.0567-0.779 0.113-1.56 0.172-2.36 0.14-1.9 0.295-3.8 0.453-5.7z" fill="#212223"/>
<path transform="translate(1187,57)" d="m0 0h1v5h2c0.168 1.46 0.334 2.92 0.5 4.38 0.0928 0.812 0.186 1.62 0.281 2.46 0.219 2.16 0.219 2.16 0.219 4.16h-3c-0.33 0.66-0.66 1.32-1 2v-18z" fill="#221F22"/>
<path transform="translate(1192,57)" d="m0 0h1v5h2c0.168 1.46 0.334 2.92 0.5 4.38 0.0928 0.812 0.186 1.62 0.281 2.46 0.219 2.16 0.219 2.16 0.219 4.16h-3c-0.33 0.66-0.66 1.32-1 2v-18z" fill="#231F22"/>
<path transform="translate(261,151)" d="m0 0h1v20c-2-1-2-1-2.61-2.72-0.445-2.62-0.556-5.12-0.574-7.78-0.0142-0.938-0.0284-1.88-0.043-2.84 0.236-2.72 0.846-4.34 2.23-6.66z" fill="#212122"/>
<path transform="translate(1134,215)" d="m0 0c2.69 0.176 5.33 0.618 8 1v3c-2.25 1.75-2.25 1.75-5 3-2.31-0.312-2.31-0.312-4-1-0.0427-1.67-0.0406-3.33 0-5 0.33-0.33 0.66-0.66 1-1z" fill="#211F22"/>
<path transform="translate(980,208)" d="m0 0c2.49 3.76 2.03 6.87 1.62 11.2-0.111 1.26-0.222 2.53-0.336 3.83-0.0954 0.964-0.191 1.93-0.289 2.92-3.17-3.83-3.42-5.99-3-11 0.545-2.4 1.24-4.66 2-7z" fill="#212122"/>
<path transform="translate(493,207)" d="m0 0c5.88 3.88 5.88 3.88 7 5 0.0724 2.02 0.0838 4.04 0.0625 6.06-0.00902 1.1-0.018 2.21-0.0273 3.35-0.0116 0.855-0.0232 1.71-0.0352 2.59h-1v-9h-2v-2c-2.48-0.99-2.48-0.99-5-2 0.33-1.32 0.66-2.64 1-4z" fill="#212223"/>
<path transform="translate(408,169)" d="m0 0 2 1c1.19 3.56 1.1 6.44 1.06 10.2-0.00902 1.27-0.018 2.54-0.0273 3.86-0.0116 0.976-0.0232 1.95-0.0352 2.96h-3v-18z" fill="#212223"/>
<path transform="translate(170,30)" d="m0 0c0.33 0.66 0.66 1.32 1 2h3v3c-0.99 0.495-0.99 0.495-2 1v4h-2v10c-2.23-4.46-2.11-6.27-1.69-11.1 0.149-1.86 0.149-1.86 0.301-3.76 0.387-3.12 0.387-3.12 1.39-5.12z" fill="#1E2022"/>
<path transform="translate(191 14.9)" d="m0 0c1.09 0.018 2.17 0.0361 3.29 0.0547 1.25 0.0348 1.25 0.0348 2.52 0.0703v3c0.66 0.33 1.32 0.66 2 1h-8v-2h-9c3.53-2.35 5.03-2.21 9.19-2.12z" fill="#212223"/>
<path transform="translate(818,197)" d="m0 0c3.94 1.31 6.23 2.92 9 6h-2c-0.66 0.66-1.32 1.32-2 2h-4c-0.33-2.64-0.66-5.28-1-8z" fill="#201D20"/>
<path transform="translate(1157,6)" d="m0 0h4v19h-1c-0.33-4.29-0.66-8.58-1-13h-2v-6z" fill="#212223"/>
<path transform="translate(895,169)" d="m0 0c2.06 1.62 2.06 1.62 4 4-0.25 3.25-0.25 3.25-1 6h-3c-0.33 0.66-0.66 1.32-1 2-0.027-1.62-0.0464-3.25-0.0625-4.88-0.0116-0.905-0.0232-1.81-0.0352-2.74 0.0977-2.38 0.0977-2.38 1.1-4.38z" fill="#212223"/>
<path transform="translate(924,11)" d="m0 0h20v1h-9v2c-3.15 0.701-5.73 1-9 1-0.66-1.32-1.32-2.64-2-4z" fill="#231F22"/>
<path transform="translate(1186,230)" d="m0 0c1.28-0.0619 2.56-0.124 3.88-0.188 1.08-0.0522 1.08-0.0522 2.18-0.105 0.642 0.0967 1.28 0.193 1.95 0.293 0.66 0.99 1.32 1.98 2 3-3.96 0.66-7.92 1.32-12 2 0.66-1.65 1.32-3.3 2-5z" fill="#231F22"/>
<path transform="translate(971,182)" d="m0 0h1c0.0809 2.6 0.14 5.21 0.188 7.81 0.0251 0.738 0.0503 1.48 0.0762 2.24 0.0747 5.5 0.0747 5.5-1.78 7.96-0.737 0.489-0.737 0.489-1.49 0.988-0.0541-2.42-0.0937-4.83-0.125-7.25-0.0168-0.682-0.0335-1.36-0.0508-2.07-0.0364-3.74 0.0963-6.51 2.18-9.68z" fill="#1E2022"/>
<path transform="translate(966,172)" d="m0 0h4v3c0.99 0.33 1.98 0.66 3 1v6c-0.33-0.66-0.66-1.32-1-2-0.99-0.33-1.98-0.66-3-1-0.99-0.66-1.98-1.32-3-2-0.188-2.62-0.188-2.62 0-5z" fill="#1E2022"/>
<path transform="translate(1043,166)" d="m0 0h1v14h2v-7h1v5h2c-0.25 1.88-0.25 1.88-1 4-2.06 1.25-2.06 1.25-4 2-1.21-3.62-1.11-6.93-1.06-10.7 0.00451-0.702 0.00902-1.4 0.0137-2.13 0.0118-1.73 0.0297-3.46 0.0488-5.19z" fill="#212223"/>
<path transform="translate(231,205)" d="m0 0v2c-1.98 0.66-3.96 1.32-6 2v2c-1.5 1.62-1.5 1.62-3 3-0.66-0.33-1.32-0.66-2-1 0.688-2.88 0.688-2.88 2-6 3.3-1.91 5.12-2 9-2z" fill="#212022"/>
<path transform="translate(1053,92)" d="m0 0h3v12h-3v-12z" fill="#1E2022"/>
<path transform="translate(864,232)" d="m0 0h4v3c-3.21 0.0292-6.42 0.0469-9.62 0.0625-1.36 0.0126-1.36 0.0126-2.74 0.0254-4.67 0.017-9.05-0.12-13.6-1.09v-1c0.631 0.00524 1.26 0.0105 1.91 0.0159 2.84 0.0207 5.68 0.0338 8.53 0.0466 0.993 0.00838 1.99 0.0168 3.01 0.0254 0.944 0.00322 1.89 0.00645 2.86 0.00977 0.875 0.00524 1.75 0.0105 2.65 0.0159 2.04 0.114 2.04 0.114 3.04-1.11z" fill="#1E2022"/>
<path transform="translate(1214,6)" d="m0 0c1.7 0.252 3.38 0.576 5.06 0.938 0.919 0.195 1.84 0.389 2.79 0.59 1.07 0.234 1.07 0.234 2.15 0.473v1h-5v5h-4c0.227-0.598 0.454-1.2 0.688-1.81 0.103-0.722 0.206-1.44 0.312-2.19-1.35-1.77-1.35-1.77-3-3 0.33-0.33 0.66-0.66 1-1z" fill="#1E1E21"/>
<path transform="translate(894,22)" d="m0 0c-0.66 2.97-1.32 5.94-2 9-0.99-0.33-1.98-0.66-3-1-0.33-0.99-0.66-1.98-1-3h2c-0.66-1.65-1.32-3.3-2-5 2-1 2-1 6 0z" fill="#211F22"/>
<path transform="translate(140,41)" d="m0 0h1c0.389 2.6 0.762 5.21 1.12 7.81 0.112 0.738 0.224 1.48 0.34 2.24 0.762 5.61 0.762 5.61-1.46 8.95-1.65-3.31-1.1-6.99-1.06-10.6 0.00451-0.802 0.00902-1.6 0.0137-2.43 0.0118-1.98 0.0297-3.96 0.0488-5.95z" fill="#1E2022"/>
<path transform="translate(973,172)" d="m0 0h1c1.63 6.15 2.2 11.6 2 18-2.46-2.55-2.99-3.86-3.29-7.45 0.0348-1.25 0.0696-2.51 0.105-3.8 0.0271-1.26 0.0541-2.53 0.082-3.83 0.0348-0.964 0.0696-1.93 0.105-2.92z" fill="#212223"/>
<path transform="translate(234,107)" d="m0 0c2.8 0.386 3.82 0.801 5.75 2.94 1.25 2.06 1.25 2.06 1.25 4.06-2.31 0.312-2.31 0.312-5 0-1.88-2.38-1.88-2.38-3-5 0.33-0.66 0.66-1.32 1-2z" fill="#1E2022"/>
<path transform="translate(380,5)" d="m0 0c-0.66 1.32-1.32 2.64-2 4h-2v-2h-2c0.66 1.65 1.32 3.3 2 5h-3c-0.33-2.31-0.66-4.62-1-7 2.86-1.43 4.93-0.6 8 0z" fill="#221F22"/>
<path transform="translate(1326,174)" d="m0 0h3c-0.66 1.65-1.32 3.3-2 5 0.66 0.33 1.32 0.66 2 1-0.144 0.495-0.289 0.99-0.438 1.5-0.782 3.48-1.15 6.96-1.56 10.5-0.66-0.66-1.32-1.32-2-2 0.0175-2.76 0.139-5.39 0.375-8.12 0.0567-0.754 0.113-1.51 0.172-2.29 0.142-1.86 0.296-3.73 0.453-5.59z" fill="#212223"/>
<path transform="translate(971,204)" d="m0 0c0.66 0.33 1.32 0.66 2 1-0.165 0.66-0.33 1.32-0.5 2-0.7 4.2-1.45 9.1 0.5 13-0.99 0.33-1.98 0.66-3 1-1.63-1.63-1.17-3.45-1.19-5.69 0.0297-4.14 0.566-7.46 2.19-11.3z" fill="#1E2022"/>
<path transform="translate(407,10)" d="m0 0c5.88 2.88 5.88 2.88 7 4 0.0408 2 0.0425 4 0 6h-2v-2h-2c-0.124-0.804-0.248-1.61-0.375-2.44-0.309-1.27-0.309-1.27-0.625-2.56-0.66-0.33-1.32-0.66-2-1v-2z" fill="#231F22"/>
<path transform="translate(963,202)" d="m0 0h1c0.33 4.95 0.66 9.9 1 15-2-1-2-1-3-2-0.0988-1.81-0.13-3.62-0.125-5.44-0.00258-0.989-0.00516-1.98-0.00781-3 0.133-2.57 0.133-2.57 1.13-4.57z" fill="#231F22"/>
<path transform="translate(183,195)" d="m0 0c0.124 0.639 0.248 1.28 0.375 1.94 0.206 0.681 0.412 1.36 0.625 2.06 0.66 0.33 1.32 0.66 2 1 0.25 7.62 0.25 7.62-2 11-0.364-1.91-0.716-3.83-1.06-5.75-0.197-1.07-0.394-2.13-0.598-3.23-0.311-2.76-0.239-4.43 0.66-7.02z" fill="#231F22"/>
<path transform="translate(1280,162)" d="m0 0h2v11h2v4h-3c-0.33-4.95-0.66-9.9-1-15z" fill="#1E2022"/>
<path transform="translate(285,8)" d="m0 0h6v6c-0.99-0.33-1.98-0.66-3-1-0.33-0.99-0.66-1.98-1-3-0.33 1.32-0.66 2.64-1 4h-1v-6z" fill="#1E2022"/>
<path transform="translate(1046,4)" d="m0 0h11c-4.09 2.05-8.34 4-13 4 0.66-1.32 1.32-2.64 2-4z" fill="#1E2022"/>
<path transform="translate(173 3.94)" d="m0 0c1.1 0.00902 2.19 0.018 3.32 0.0273 0.843 0.0116 1.69 0.0232 2.55 0.0352-2 2-2 2-5.12 2.12-0.949-0.0412-1.9-0.0825-2.88-0.125-0.33 0.66-0.66 1.32-1 2v-2h-3c-0.33 0.99-0.66 1.98-1 3-0.33-1.32-0.66-2.64-1-4 2.76-1.38 5.05-1.1 8.12-1.06z" fill="#1E1F22"/>
<path transform="translate(877,214)" d="m0 0c0.33 0.99 0.66 1.98 1 3h-12c2.11-4.21 6.88-3.08 11-3z" fill="#231F22"/>
<path transform="translate(907,183)" d="m0 0c1.93 2.9 2.28 3.79 2.56 7.06 0.183 3.72 0.183 3.72 1.44 5.94-3.88-0.875-3.88-0.875-5-2 0.0898-1.86 0.246-3.71 0.438-5.56 0.102-1.01 0.204-2.02 0.309-3.07 0.0838-0.782 0.168-1.56 0.254-2.37z" fill="#1E1F22"/>
<path transform="translate(293,157)" d="m0 0h2c0.0606 0.699 0.121 1.4 0.184 2.12 0.0838 0.91 0.168 1.82 0.254 2.76 0.122 1.36 0.122 1.36 0.246 2.74 0.186 2.39 0.186 2.39 1.32 4.38h-2v2h2v3h-3c-0.33-5.61-0.66-11.2-1-17z" fill="#212223"/>
<path transform="translate(229,114)" d="m0 0c2.64 0.66 5.28 1.32 8 2-0.33 0.99-0.66 1.98-1 3h-7v-5z" fill="#1E2022"/>
<path transform="translate(362,68)" d="m0 0h1v20h-2c0.0348-1.36 0.0348-1.36 0.0703-2.74 0.0271-1.77 0.0271-1.77 0.0547-3.57 0.0232-1.17 0.0464-2.34 0.0703-3.55 0.0579-3.3 0.0579-3.3-2.2-6.14h3v-4z" fill="#212223"/>
<path transform="translate(865,4)" d="m0 0c0.33 0.66 0.66 1.32 1 2-0.938 2.13-0.938 2.13-2 4-2.97-0.495-2.97-0.495-6-1 0.688-1.94 0.688-1.94 2-4 2.62-0.75 2.62-0.75 5-1z" fill="#1D1E20"/>
<path transform="translate(197,227)" d="m0 0c0.33 0.99 0.66 1.98 1 3-1 1-1 1-2.85 1.1-2.05-0.0326-4.1-0.0651-6.15-0.0977v-3c2.64-0.33 5.28-0.66 8-1z" fill="#202122"/>
<path transform="translate(1060,183)" d="m0 0c3.15 3.42 3.56 6.44 4 11-0.99 0.495-0.99 0.495-2 1-2.58-3.88-2.63-6.39-3-11 0.33-0.33 0.66-0.66 1-1z" fill="#1E2022"/>
<path transform="translate(1294,141)" d="m0 0h2v2c0.99 0.33 1.98 0.66 3 1h-2v2h-3v2h-4v-2h2v-2h2v-3z" fill="#1F1F22"/>
<path transform="translate(286,95)" d="m0 0h2c0.33 4.29 0.66 8.58 1 13h-2c-1.1-4.41-1.08-8.48-1-13z" fill="#212223"/>
<path transform="translate(1279,68)" d="m0 0c1.94 0.562 1.94 0.562 4 2 0.688 3.44 0.688 3.44 1 7 0.33 0.99 0.66 1.98 1 3-0.99 0.99-1.98 1.98-3 3-0.049-0.855-0.098-1.71-0.148-2.59-0.0748-1.1-0.15-2.21-0.227-3.35-0.0696-1.1-0.139-2.2-0.211-3.34-0.137-0.898-0.273-1.8-0.414-2.72-0.66-0.33-1.32-0.66-2-1v-2z" fill="#212122"/>
<path transform="translate(836,45)" d="m0 0h2c0.33 4.29 0.66 8.58 1 13-0.99 0.495-0.99 0.495-2 1-2.05-4.11-1.97-6.56-1-11v-3z" fill="#212223"/>
<path transform="translate(438,159)" d="m0 0c0.99 0.33 1.98 0.66 3 1 0.25 6.62 0.25 6.62-2 10-1.2-2.41-1.1-3.95-1.06-6.62 0.00902-0.817 0.018-1.63 0.0273-2.48 0.0116-0.626 0.0232-1.25 0.0352-1.9z" fill="#1E2022"/>
<path transform="translate(890,29)" d="m0 0c1.98 0.66 3.96 1.32 6 2-0.99 1.32-1.98 2.64-3 4-1.94-0.375-1.94-0.375-4-1-0.33-0.66-0.66-1.32-1-2 0.66-0.99 1.32-1.98 2-3z" fill="#1A1C1E"/>
<path transform="translate(499,236)" d="m0 0 2 1z" fill="#000204"/>
<path transform="translate(407,2)" d="m0 0 2 1z" fill="#1E2022"/>
</svg>